%TF.GenerationSoftware,KiCad,Pcbnew,9.0.4*%
%TF.CreationDate,2025-09-16T08:38:51+02:00*%
%TF.ProjectId,Kimera_E22,4b696d65-7261-45f4-9532-322e6b696361,rev?*%
%TF.SameCoordinates,Original*%
%TF.FileFunction,Legend,Bot*%
%TF.FilePolarity,Positive*%
%FSLAX46Y46*%
G04 Gerber Fmt 4.6, Leading zero omitted, Abs format (unit mm)*
G04 Created by KiCad (PCBNEW 9.0.4) date 2025-09-16 08:38:51*
%MOMM*%
%LPD*%
G01*
G04 APERTURE LIST*
%ADD10C,0.800000*%
G04 APERTURE END LIST*
D10*
X132939932Y-99500351D02*
X136439932Y-99500351D01*
X132939932Y-97500351D02*
X134939932Y-99000351D01*
X136439932Y-97500351D02*
X134439932Y-99500351D01*
X132939932Y-96000351D02*
X135273265Y-96000351D01*
X136439932Y-96000351D02*
X136273265Y-96167018D01*
X136273265Y-96167018D02*
X136106599Y-96000351D01*
X136106599Y-96000351D02*
X136273265Y-95833685D01*
X136273265Y-95833685D02*
X136439932Y-96000351D01*
X136439932Y-96000351D02*
X136106599Y-96000351D01*
X132939932Y-94333684D02*
X135273265Y-94333684D01*
X134939932Y-94333684D02*
X135106599Y-94167018D01*
X135106599Y-94167018D02*
X135273265Y-93833684D01*
X135273265Y-93833684D02*
X135273265Y-93333684D01*
X135273265Y-93333684D02*
X135106599Y-93000351D01*
X135106599Y-93000351D02*
X134773265Y-92833684D01*
X134773265Y-92833684D02*
X132939932Y-92833684D01*
X134773265Y-92833684D02*
X135106599Y-92667018D01*
X135106599Y-92667018D02*
X135273265Y-92333684D01*
X135273265Y-92333684D02*
X135273265Y-91833684D01*
X135273265Y-91833684D02*
X135106599Y-91500351D01*
X135106599Y-91500351D02*
X134773265Y-91333684D01*
X134773265Y-91333684D02*
X132939932Y-91333684D01*
X133106599Y-88333684D02*
X132939932Y-88667017D01*
X132939932Y-88667017D02*
X132939932Y-89333684D01*
X132939932Y-89333684D02*
X133106599Y-89667017D01*
X133106599Y-89667017D02*
X133439932Y-89833684D01*
X133439932Y-89833684D02*
X134773265Y-89833684D01*
X134773265Y-89833684D02*
X135106599Y-89667017D01*
X135106599Y-89667017D02*
X135273265Y-89333684D01*
X135273265Y-89333684D02*
X135273265Y-88667017D01*
X135273265Y-88667017D02*
X135106599Y-88333684D01*
X135106599Y-88333684D02*
X134773265Y-88167017D01*
X134773265Y-88167017D02*
X134439932Y-88167017D01*
X134439932Y-88167017D02*
X134106599Y-89833684D01*
X132939932Y-86667017D02*
X135273265Y-86667017D01*
X134606599Y-86667017D02*
X134939932Y-86500351D01*
X134939932Y-86500351D02*
X135106599Y-86333684D01*
X135106599Y-86333684D02*
X135273265Y-86000351D01*
X135273265Y-86000351D02*
X135273265Y-85667017D01*
X132939932Y-83000350D02*
X134773265Y-83000350D01*
X134773265Y-83000350D02*
X135106599Y-83167017D01*
X135106599Y-83167017D02*
X135273265Y-83500350D01*
X135273265Y-83500350D02*
X135273265Y-84167017D01*
X135273265Y-84167017D02*
X135106599Y-84500350D01*
X133106599Y-83000350D02*
X132939932Y-83333684D01*
X132939932Y-83333684D02*
X132939932Y-84167017D01*
X132939932Y-84167017D02*
X133106599Y-84500350D01*
X133106599Y-84500350D02*
X133439932Y-84667017D01*
X133439932Y-84667017D02*
X133773265Y-84667017D01*
X133773265Y-84667017D02*
X134106599Y-84500350D01*
X134106599Y-84500350D02*
X134273265Y-84167017D01*
X134273265Y-84167017D02*
X134273265Y-83333684D01*
X134273265Y-83333684D02*
X134439932Y-83000350D01*
X134273265Y-78667016D02*
X134273265Y-76000350D01*
X134773265Y-71667016D02*
X134773265Y-70500350D01*
X132939932Y-70000350D02*
X132939932Y-71667016D01*
X132939932Y-71667016D02*
X136439932Y-71667016D01*
X136439932Y-71667016D02*
X136439932Y-70000350D01*
X136106599Y-68667016D02*
X136273265Y-68500349D01*
X136273265Y-68500349D02*
X136439932Y-68167016D01*
X136439932Y-68167016D02*
X136439932Y-67333683D01*
X136439932Y-67333683D02*
X136273265Y-67000349D01*
X136273265Y-67000349D02*
X136106599Y-66833683D01*
X136106599Y-66833683D02*
X135773265Y-66667016D01*
X135773265Y-66667016D02*
X135439932Y-66667016D01*
X135439932Y-66667016D02*
X134939932Y-66833683D01*
X134939932Y-66833683D02*
X132939932Y-68833683D01*
X132939932Y-68833683D02*
X132939932Y-66667016D01*
X136106599Y-65333683D02*
X136273265Y-65167016D01*
X136273265Y-65167016D02*
X136439932Y-64833683D01*
X136439932Y-64833683D02*
X136439932Y-64000350D01*
X136439932Y-64000350D02*
X136273265Y-63667016D01*
X136273265Y-63667016D02*
X136106599Y-63500350D01*
X136106599Y-63500350D02*
X135773265Y-63333683D01*
X135773265Y-63333683D02*
X135439932Y-63333683D01*
X135439932Y-63333683D02*
X134939932Y-63500350D01*
X134939932Y-63500350D02*
X132939932Y-65500350D01*
X132939932Y-65500350D02*
X132939932Y-63333683D01*
M02*
