%TF.GenerationSoftware,KiCad,Pcbnew,9.0.4*%
%TF.CreationDate,2025-09-16T08:38:51+02:00*%
%TF.ProjectId,Kimera_E22,4b696d65-7261-45f4-9532-322e6b696361,rev?*%
%TF.SameCoordinates,Original*%
%TF.FileFunction,Legend,Top*%
%TF.FilePolarity,Positive*%
%FSLAX46Y46*%
G04 Gerber Fmt 4.6, Leading zero omitted, Abs format (unit mm)*
G04 Created by KiCad (PCBNEW 9.0.4) date 2025-09-16 08:38:51*
%MOMM*%
%LPD*%
G01*
G04 APERTURE LIST*
%ADD10C,0.150000*%
%ADD11C,0.127000*%
%ADD12C,0.200000*%
%ADD13C,0.120000*%
G04 APERTURE END LIST*
D10*
X117943095Y-59529819D02*
X117943095Y-60339342D01*
X117943095Y-60339342D02*
X117990714Y-60434580D01*
X117990714Y-60434580D02*
X118038333Y-60482200D01*
X118038333Y-60482200D02*
X118133571Y-60529819D01*
X118133571Y-60529819D02*
X118324047Y-60529819D01*
X118324047Y-60529819D02*
X118419285Y-60482200D01*
X118419285Y-60482200D02*
X118466904Y-60434580D01*
X118466904Y-60434580D02*
X118514523Y-60339342D01*
X118514523Y-60339342D02*
X118514523Y-59529819D01*
X119514523Y-60529819D02*
X118943095Y-60529819D01*
X119228809Y-60529819D02*
X119228809Y-59529819D01*
X119228809Y-59529819D02*
X119133571Y-59672676D01*
X119133571Y-59672676D02*
X119038333Y-59767914D01*
X119038333Y-59767914D02*
X118943095Y-59815533D01*
D11*
%TO.C,U1*%
X140395000Y-100460000D02*
X116395000Y-100460000D01*
X140395000Y-61960000D02*
X140395000Y-63495000D01*
X116395000Y-61960000D02*
X140395000Y-61960000D01*
X116395000Y-100460000D02*
X116395000Y-96105000D01*
X116395000Y-63495000D02*
X116395000Y-61960000D01*
X140395000Y-100460000D02*
X140395000Y-96105000D01*
D12*
X142110000Y-95030000D02*
G75*
G02*
X141910000Y-95030000I-100000J0D01*
G01*
X141910000Y-95030000D02*
G75*
G02*
X142110000Y-95030000I100000J0D01*
G01*
D13*
%TO.C,J1*%
X107380000Y-97820000D02*
X106000000Y-97820000D01*
X107380000Y-96440000D02*
X107380000Y-97820000D01*
X107380000Y-95170000D02*
X107380000Y-62040000D01*
X107380000Y-95170000D02*
X104620000Y-95170000D01*
X107380000Y-62040000D02*
X104620000Y-62040000D01*
X104620000Y-95170000D02*
X104620000Y-62040000D01*
%TD*%
M02*
