M48
; DRILL file {KiCad 6.0.11+dfsg-1} date mar 05 ago 2025 12:34:47
; FORMAT={-:-/ absolute / inch / decimal}
; #@! TF.CreationDate,2025-08-05T12:34:47+02:00
; #@! TF.GenerationSoftware,Kicad,Pcbnew,6.0.11+dfsg-1
; #@! TF.FileFunction,Plated,1,2,PTH
FMAT,2
INCH
; #@! TA.AperFunction,Plated,PTH,ViaDrill
T1C0.0157
; #@! TA.AperFunction,Plated,PTH,ComponentDrill
T2C0.0402
%
G90
G05
T1
X5.9Y-4.4535
X5.95Y-4.425
X6.0Y-4.375
X6.325Y-4.325
X6.4Y-4.325
T2
X3.8996Y-3.5
X3.8996Y-4.5
X3.9996Y-3.5
X3.9996Y-4.5
X4.0996Y-3.5
X4.0996Y-4.5
X4.1996Y-3.5
X4.1996Y-4.5
X4.2996Y-3.5
X4.2996Y-4.5
X4.3996Y-3.5
X4.3996Y-4.5
X4.4996Y-3.5
X4.4996Y-4.5
X4.5996Y-3.5
X4.5996Y-4.5
X4.6996Y-3.5
X4.6996Y-4.5
X4.7996Y-3.5
X4.7996Y-4.5
X4.8996Y-3.5
X4.8996Y-4.5
X4.9996Y-3.5
X4.9996Y-4.5
X5.0996Y-3.5
X5.0996Y-4.5
X5.1996Y-3.5
X5.1996Y-4.5
X5.2996Y-3.5
X5.2996Y-4.5
X5.3996Y-3.5
X5.3996Y-4.5
X5.4996Y-3.5
X5.4996Y-4.5
X5.5996Y-3.5
X5.5996Y-4.5
X5.6996Y-3.5
X5.6996Y-4.5
T0
M30
