%TF.GenerationSoftware,KiCad,Pcbnew,6.0.11+dfsg-1*%
%TF.CreationDate,2025-08-05T12:34:31+02:00*%
%TF.ProjectId,Kimera,4b696d65-7261-42e6-9b69-6361645f7063,rev?*%
%TF.SameCoordinates,Original*%
%TF.FileFunction,Soldermask,Bot*%
%TF.FilePolarity,Negative*%
%FSLAX46Y46*%
G04 Gerber Fmt 4.6, Leading zero omitted, Abs format (unit mm)*
G04 Created by KiCad (PCBNEW 6.0.11+dfsg-1) date 2025-08-05 12:34:31*
%MOMM*%
%LPD*%
G01*
G04 APERTURE LIST*
G04 Aperture macros list*
%AMRoundRect*
0 Rectangle with rounded corners*
0 $1 Rounding radius*
0 $2 $3 $4 $5 $6 $7 $8 $9 X,Y pos of 4 corners*
0 Add a 4 corners polygon primitive as box body*
4,1,4,$2,$3,$4,$5,$6,$7,$8,$9,$2,$3,0*
0 Add four circle primitives for the rounded corners*
1,1,$1+$1,$2,$3*
1,1,$1+$1,$4,$5*
1,1,$1+$1,$6,$7*
1,1,$1+$1,$8,$9*
0 Add four rect primitives between the rounded corners*
20,1,$1+$1,$2,$3,$4,$5,0*
20,1,$1+$1,$4,$5,$6,$7,0*
20,1,$1+$1,$6,$7,$8,$9,0*
20,1,$1+$1,$8,$9,$2,$3,0*%
G04 Aperture macros list end*
%ADD10C,2.200000*%
%ADD11RoundRect,0.102000X-0.765000X0.765000X-0.765000X-0.765000X0.765000X-0.765000X0.765000X0.765000X0*%
%ADD12C,1.734000*%
G04 APERTURE END LIST*
D10*
%TO.C,REF\u002A\u002A*%
X199390000Y-112395000D03*
%TD*%
%TO.C,REF\u002A\u002A*%
X199390000Y-92075000D03*
%TD*%
%TO.C,REF\u002A\u002A*%
X93345000Y-112395000D03*
%TD*%
%TO.C,REF\u002A\u002A*%
X93345000Y-92075000D03*
%TD*%
D11*
%TO.C,U1*%
X144770000Y-88900000D03*
D12*
X142230000Y-88900000D03*
X139690000Y-88900000D03*
X137150000Y-88900000D03*
X134610000Y-88900000D03*
X132070000Y-88900000D03*
X129530000Y-88900000D03*
X126990000Y-88900000D03*
X124450000Y-88900000D03*
X121910000Y-88900000D03*
X119370000Y-88900000D03*
X116830000Y-88900000D03*
X114290000Y-88900000D03*
X111750000Y-88900000D03*
X109210000Y-88900000D03*
X106670000Y-88900000D03*
X104130000Y-88900000D03*
X101590000Y-88900000D03*
X99050000Y-88900000D03*
X99050000Y-114300000D03*
X101590000Y-114300000D03*
X104130000Y-114300000D03*
X106670000Y-114300000D03*
X109210000Y-114300000D03*
X111750000Y-114300000D03*
X114290000Y-114300000D03*
X116830000Y-114300000D03*
X119370000Y-114300000D03*
X121910000Y-114300000D03*
X124450000Y-114300000D03*
X126990000Y-114300000D03*
X129530000Y-114300000D03*
X132070000Y-114300000D03*
X134610000Y-114300000D03*
X137150000Y-114300000D03*
X139690000Y-114300000D03*
X142230000Y-114300000D03*
X144770000Y-114300000D03*
%TD*%
M02*
