%TF.GenerationSoftware,KiCad,Pcbnew,6.0.11+dfsg-1*%
%TF.CreationDate,2025-08-05T12:34:31+02:00*%
%TF.ProjectId,Kimera,4b696d65-7261-42e6-9b69-6361645f7063,rev?*%
%TF.SameCoordinates,Original*%
%TF.FileFunction,Copper,L2,Bot*%
%TF.FilePolarity,Positive*%
%FSLAX46Y46*%
G04 Gerber Fmt 4.6, Leading zero omitted, Abs format (unit mm)*
G04 Created by KiCad (PCBNEW 6.0.11+dfsg-1) date 2025-08-05 12:34:31*
%MOMM*%
%LPD*%
G01*
G04 APERTURE LIST*
%ADD10C,2.000000*%
%TA.AperFunction,NonConductor*%
%ADD11C,2.000000*%
%TD*%
%TA.AperFunction,ComponentPad*%
%ADD12R,1.530000X1.530000*%
%TD*%
%TA.AperFunction,ComponentPad*%
%ADD13C,1.530000*%
%TD*%
%TA.AperFunction,ViaPad*%
%ADD14C,0.800000*%
%TD*%
%TA.AperFunction,Conductor*%
%ADD15C,0.250000*%
%TD*%
G04 APERTURE END LIST*
D10*
D11*
X192481428Y-102948809D02*
X192481428Y-92948809D01*
X186767142Y-102948809D02*
X191052857Y-97234523D01*
X186767142Y-92948809D02*
X192481428Y-98663095D01*
X182481428Y-102948809D02*
X182481428Y-96282142D01*
X182481428Y-92948809D02*
X182957619Y-93425000D01*
X182481428Y-93901190D01*
X182005238Y-93425000D01*
X182481428Y-92948809D01*
X182481428Y-93901190D01*
X177719523Y-102948809D02*
X177719523Y-96282142D01*
X177719523Y-97234523D02*
X177243333Y-96758333D01*
X176290952Y-96282142D01*
X174862380Y-96282142D01*
X173910000Y-96758333D01*
X173433809Y-97710714D01*
X173433809Y-102948809D01*
X173433809Y-97710714D02*
X172957619Y-96758333D01*
X172005238Y-96282142D01*
X170576666Y-96282142D01*
X169624285Y-96758333D01*
X169148095Y-97710714D01*
X169148095Y-102948809D01*
X160576666Y-102472619D02*
X161529047Y-102948809D01*
X163433809Y-102948809D01*
X164386190Y-102472619D01*
X164862380Y-101520238D01*
X164862380Y-97710714D01*
X164386190Y-96758333D01*
X163433809Y-96282142D01*
X161529047Y-96282142D01*
X160576666Y-96758333D01*
X160100476Y-97710714D01*
X160100476Y-98663095D01*
X164862380Y-99615476D01*
X155814761Y-102948809D02*
X155814761Y-96282142D01*
X155814761Y-98186904D02*
X155338571Y-97234523D01*
X154862380Y-96758333D01*
X153910000Y-96282142D01*
X152957619Y-96282142D01*
X145338571Y-102948809D02*
X145338571Y-97710714D01*
X145814761Y-96758333D01*
X146767142Y-96282142D01*
X148671904Y-96282142D01*
X149624285Y-96758333D01*
X145338571Y-102472619D02*
X146290952Y-102948809D01*
X148671904Y-102948809D01*
X149624285Y-102472619D01*
X150100476Y-101520238D01*
X150100476Y-100567857D01*
X149624285Y-99615476D01*
X148671904Y-99139285D01*
X146290952Y-99139285D01*
X145338571Y-98663095D01*
D12*
%TO.P,U1,1,3V3*%
%TO.N,unconnected-(U1-Pad1)*%
X144770000Y-88900000D03*
D13*
%TO.P,U1,2,EN*%
%TO.N,unconnected-(U1-Pad2)*%
X142230000Y-88900000D03*
%TO.P,U1,3,SENSOR_VP*%
%TO.N,unconnected-(U1-Pad3)*%
X139690000Y-88900000D03*
%TO.P,U1,4,SENSOR_VN*%
%TO.N,unconnected-(U1-Pad4)*%
X137150000Y-88900000D03*
%TO.P,U1,5,IO34*%
%TO.N,unconnected-(U1-Pad5)*%
X134610000Y-88900000D03*
%TO.P,U1,6,IO35*%
%TO.N,unconnected-(U1-Pad6)*%
X132070000Y-88900000D03*
%TO.P,U1,7,IO32*%
%TO.N,Net-(U1-Pad7)*%
X129530000Y-88900000D03*
%TO.P,U1,8,IO33*%
%TO.N,Net-(U1-Pad8)*%
X126990000Y-88900000D03*
%TO.P,U1,9,IO25*%
%TO.N,unconnected-(U1-Pad9)*%
X124450000Y-88900000D03*
%TO.P,U1,10,IO26*%
%TO.N,unconnected-(U1-Pad10)*%
X121910000Y-88900000D03*
%TO.P,U1,11,IO27*%
%TO.N,Net-(U1-Pad11)*%
X119370000Y-88900000D03*
%TO.P,U1,12,IO14*%
%TO.N,Net-(U1-Pad12)*%
X116830000Y-88900000D03*
%TO.P,U1,13,IO12*%
%TO.N,unconnected-(U1-Pad13)*%
X114290000Y-88900000D03*
%TO.P,U1,14,GND1*%
%TO.N,GND*%
X111750000Y-88900000D03*
%TO.P,U1,15,IO13*%
%TO.N,Net-(U1-Pad15)*%
X109210000Y-88900000D03*
%TO.P,U1,16,SD2*%
%TO.N,unconnected-(U1-Pad16)*%
X106670000Y-88900000D03*
%TO.P,U1,17,SD3*%
%TO.N,unconnected-(U1-Pad17)*%
X104130000Y-88900000D03*
%TO.P,U1,18,CMD*%
%TO.N,unconnected-(U1-Pad18)*%
X101590000Y-88900000D03*
%TO.P,U1,19,EXT_5V*%
%TO.N,Net-(U1-Pad19)*%
X99050000Y-88900000D03*
%TO.P,U1,20,CLK*%
%TO.N,unconnected-(U1-Pad20)*%
X99050000Y-114300000D03*
%TO.P,U1,21,SD0*%
%TO.N,unconnected-(U1-Pad21)*%
X101590000Y-114300000D03*
%TO.P,U1,22,SD1*%
%TO.N,unconnected-(U1-Pad22)*%
X104130000Y-114300000D03*
%TO.P,U1,23,IO15*%
%TO.N,unconnected-(U1-Pad23)*%
X106670000Y-114300000D03*
%TO.P,U1,24,IO2*%
%TO.N,unconnected-(U1-Pad24)*%
X109210000Y-114300000D03*
%TO.P,U1,25,IO0*%
%TO.N,unconnected-(U1-Pad25)*%
X111750000Y-114300000D03*
%TO.P,U1,26,IO4*%
%TO.N,unconnected-(U1-Pad26)*%
X114290000Y-114300000D03*
%TO.P,U1,27,IO16*%
%TO.N,unconnected-(U1-Pad27)*%
X116830000Y-114300000D03*
%TO.P,U1,28,IO17*%
%TO.N,unconnected-(U1-Pad28)*%
X119370000Y-114300000D03*
%TO.P,U1,29,IO5*%
%TO.N,Net-(U1-Pad29)*%
X121910000Y-114300000D03*
%TO.P,U1,30,IO18*%
%TO.N,Net-(U1-Pad30)*%
X124450000Y-114300000D03*
%TO.P,U1,31,IO19*%
%TO.N,Net-(U1-Pad31)*%
X126990000Y-114300000D03*
%TO.P,U1,32,GND2*%
%TO.N,GND*%
X129530000Y-114300000D03*
%TO.P,U1,33,IO21*%
%TO.N,unconnected-(U1-Pad33)*%
X132070000Y-114300000D03*
%TO.P,U1,34,RXD0*%
%TO.N,unconnected-(U1-Pad34)*%
X134610000Y-114300000D03*
%TO.P,U1,35,TXD0*%
%TO.N,unconnected-(U1-Pad35)*%
X137150000Y-114300000D03*
%TO.P,U1,36,IO22*%
%TO.N,unconnected-(U1-Pad36)*%
X139690000Y-114300000D03*
%TO.P,U1,37,IO23*%
%TO.N,Net-(U1-Pad37)*%
X142230000Y-114300000D03*
%TO.P,U1,38,GND3*%
%TO.N,GND*%
X144770000Y-114300000D03*
%TD*%
D14*
%TO.N,Net-(U1-Pad7)*%
X162560000Y-109855000D03*
%TO.N,Net-(U1-Pad8)*%
X160655000Y-109855000D03*
%TO.N,Net-(U1-Pad37)*%
X152400000Y-111125000D03*
%TO.N,Net-(U1-Pad31)*%
X149860000Y-113119500D03*
%TO.N,Net-(U1-Pad11)*%
X151130000Y-112395000D03*
%TD*%
D15*
%TO.N,Net-(U1-Pad7)*%
X162560000Y-109855000D02*
X157480000Y-104775000D01*
X157480000Y-104775000D02*
X134620000Y-104775000D01*
X134620000Y-104775000D02*
X129530000Y-99685000D01*
X129530000Y-99685000D02*
X129530000Y-88900000D01*
%TO.N,Net-(U1-Pad8)*%
X126990000Y-88900000D02*
X126990000Y-99685000D01*
X126990000Y-99685000D02*
X133985000Y-106680000D01*
X133985000Y-106680000D02*
X157480000Y-106680000D01*
X157480000Y-106680000D02*
X160655000Y-109855000D01*
%TO.N,Net-(U1-Pad37)*%
X152400000Y-111125000D02*
X152400000Y-113666396D01*
X152400000Y-113666396D02*
X150046396Y-116020000D01*
X150046396Y-116020000D02*
X143950000Y-116020000D01*
X143950000Y-116020000D02*
X142230000Y-114300000D01*
%TO.N,Net-(U1-Pad31)*%
X149860000Y-113030000D02*
X149860000Y-113119500D01*
X127635000Y-113030000D02*
X149860000Y-113030000D01*
X126990000Y-114300000D02*
X126990000Y-113675000D01*
X126990000Y-113675000D02*
X127635000Y-113030000D01*
%TO.N,Net-(U1-Pad11)*%
X130810000Y-111760000D02*
X131445000Y-112395000D01*
X131445000Y-112395000D02*
X150495000Y-112395000D01*
X119370000Y-88900000D02*
X119370000Y-100320000D01*
X119370000Y-100320000D02*
X130810000Y-111760000D01*
X150495000Y-112395000D02*
X151130000Y-112395000D01*
%TD*%
%TA.AperFunction,Conductor*%
%TO.N,GND*%
G36*
X202633621Y-86888502D02*
G01*
X202680114Y-86942158D01*
X202691500Y-86994500D01*
X202691500Y-116205500D01*
X202671498Y-116273621D01*
X202617842Y-116320114D01*
X202565500Y-116331500D01*
X150934990Y-116331500D01*
X150866869Y-116311498D01*
X150820376Y-116257842D01*
X150810272Y-116187568D01*
X150839766Y-116122988D01*
X150845895Y-116116405D01*
X152792247Y-114170053D01*
X152800537Y-114162509D01*
X152807018Y-114158396D01*
X152853659Y-114108728D01*
X152856413Y-114105887D01*
X152876135Y-114086165D01*
X152878619Y-114082963D01*
X152886317Y-114073951D01*
X152911161Y-114047494D01*
X152916586Y-114041717D01*
X152926347Y-114023962D01*
X152937198Y-114007443D01*
X152949614Y-113991437D01*
X152967174Y-113950859D01*
X152972391Y-113940209D01*
X152993695Y-113901456D01*
X152998733Y-113881833D01*
X153005137Y-113863130D01*
X153010033Y-113851816D01*
X153010033Y-113851815D01*
X153013181Y-113844541D01*
X153014420Y-113836718D01*
X153014423Y-113836708D01*
X153020099Y-113800872D01*
X153022505Y-113789252D01*
X153031528Y-113754107D01*
X153031528Y-113754106D01*
X153033500Y-113746426D01*
X153033500Y-113726172D01*
X153035051Y-113706461D01*
X153036980Y-113694282D01*
X153038220Y-113686453D01*
X153034059Y-113642434D01*
X153033500Y-113630577D01*
X153033500Y-112395000D01*
X197776526Y-112395000D01*
X197796391Y-112647403D01*
X197855495Y-112893591D01*
X197857388Y-112898162D01*
X197857389Y-112898164D01*
X197939877Y-113097307D01*
X197952384Y-113127502D01*
X198084672Y-113343376D01*
X198249102Y-113535898D01*
X198441624Y-113700328D01*
X198657498Y-113832616D01*
X198662068Y-113834509D01*
X198662072Y-113834511D01*
X198886836Y-113927611D01*
X198891409Y-113929505D01*
X198935949Y-113940198D01*
X199132784Y-113987454D01*
X199132790Y-113987455D01*
X199137597Y-113988609D01*
X199229715Y-113995859D01*
X199324345Y-114003307D01*
X199324352Y-114003307D01*
X199326801Y-114003500D01*
X199453199Y-114003500D01*
X199455648Y-114003307D01*
X199455655Y-114003307D01*
X199550285Y-113995859D01*
X199642403Y-113988609D01*
X199647210Y-113987455D01*
X199647216Y-113987454D01*
X199844051Y-113940198D01*
X199888591Y-113929505D01*
X199893164Y-113927611D01*
X200117928Y-113834511D01*
X200117932Y-113834509D01*
X200122502Y-113832616D01*
X200338376Y-113700328D01*
X200530898Y-113535898D01*
X200695328Y-113343376D01*
X200827616Y-113127502D01*
X200840124Y-113097307D01*
X200922611Y-112898164D01*
X200922612Y-112898162D01*
X200924505Y-112893591D01*
X200983609Y-112647403D01*
X201003474Y-112395000D01*
X200983609Y-112142597D01*
X200924505Y-111896409D01*
X200868624Y-111761500D01*
X200829511Y-111667072D01*
X200829509Y-111667068D01*
X200827616Y-111662498D01*
X200695328Y-111446624D01*
X200530898Y-111254102D01*
X200338376Y-111089672D01*
X200122502Y-110957384D01*
X200117932Y-110955491D01*
X200117928Y-110955489D01*
X199893164Y-110862389D01*
X199893162Y-110862388D01*
X199888591Y-110860495D01*
X199803968Y-110840179D01*
X199647216Y-110802546D01*
X199647210Y-110802545D01*
X199642403Y-110801391D01*
X199542584Y-110793535D01*
X199455655Y-110786693D01*
X199455648Y-110786693D01*
X199453199Y-110786500D01*
X199326801Y-110786500D01*
X199324352Y-110786693D01*
X199324345Y-110786693D01*
X199237416Y-110793535D01*
X199137597Y-110801391D01*
X199132790Y-110802545D01*
X199132784Y-110802546D01*
X198976032Y-110840179D01*
X198891409Y-110860495D01*
X198886838Y-110862388D01*
X198886836Y-110862389D01*
X198662072Y-110955489D01*
X198662068Y-110955491D01*
X198657498Y-110957384D01*
X198441624Y-111089672D01*
X198249102Y-111254102D01*
X198084672Y-111446624D01*
X197952384Y-111662498D01*
X197950491Y-111667068D01*
X197950489Y-111667072D01*
X197911376Y-111761500D01*
X197855495Y-111896409D01*
X197796391Y-112142597D01*
X197776526Y-112395000D01*
X153033500Y-112395000D01*
X153033500Y-111827524D01*
X153053502Y-111759403D01*
X153065858Y-111743221D01*
X153139040Y-111661944D01*
X153234527Y-111496556D01*
X153293542Y-111314928D01*
X153313504Y-111125000D01*
X153293542Y-110935072D01*
X153234527Y-110753444D01*
X153139040Y-110588056D01*
X153093744Y-110537749D01*
X153015675Y-110451045D01*
X153015674Y-110451044D01*
X153011253Y-110446134D01*
X152856752Y-110333882D01*
X152850724Y-110331198D01*
X152850722Y-110331197D01*
X152688319Y-110258891D01*
X152688318Y-110258891D01*
X152682288Y-110256206D01*
X152569721Y-110232279D01*
X152501944Y-110217872D01*
X152501939Y-110217872D01*
X152495487Y-110216500D01*
X152304513Y-110216500D01*
X152298061Y-110217872D01*
X152298056Y-110217872D01*
X152230279Y-110232279D01*
X152117712Y-110256206D01*
X152111682Y-110258891D01*
X152111681Y-110258891D01*
X151949278Y-110331197D01*
X151949276Y-110331198D01*
X151943248Y-110333882D01*
X151788747Y-110446134D01*
X151784326Y-110451044D01*
X151784325Y-110451045D01*
X151706257Y-110537749D01*
X151660960Y-110588056D01*
X151565473Y-110753444D01*
X151506458Y-110935072D01*
X151486496Y-111125000D01*
X151506458Y-111314928D01*
X151508498Y-111321206D01*
X151519746Y-111355824D01*
X151521774Y-111426791D01*
X151485111Y-111487589D01*
X151421399Y-111518915D01*
X151373716Y-111518007D01*
X151231944Y-111487872D01*
X151231939Y-111487872D01*
X151225487Y-111486500D01*
X151034513Y-111486500D01*
X151028061Y-111487872D01*
X151028056Y-111487872D01*
X150960279Y-111502279D01*
X150847712Y-111526206D01*
X150841682Y-111528891D01*
X150841681Y-111528891D01*
X150679278Y-111601197D01*
X150679276Y-111601198D01*
X150673248Y-111603882D01*
X150518747Y-111716134D01*
X150514332Y-111721037D01*
X150509420Y-111725460D01*
X150508295Y-111724211D01*
X150454986Y-111757051D01*
X150421800Y-111761500D01*
X131759595Y-111761500D01*
X131691474Y-111741498D01*
X131670499Y-111724595D01*
X131464820Y-111518915D01*
X131229770Y-111283865D01*
X131229756Y-111283852D01*
X120040405Y-100094500D01*
X120006379Y-100032188D01*
X120003500Y-100005405D01*
X120003500Y-90076667D01*
X120023502Y-90008546D01*
X120057228Y-89973455D01*
X120191717Y-89879284D01*
X120349284Y-89721717D01*
X120477097Y-89539182D01*
X120479420Y-89534200D01*
X120479423Y-89534195D01*
X120525805Y-89434727D01*
X120572722Y-89381442D01*
X120640999Y-89361981D01*
X120708959Y-89382523D01*
X120754195Y-89434727D01*
X120800577Y-89534195D01*
X120800580Y-89534200D01*
X120802903Y-89539182D01*
X120930716Y-89721717D01*
X121088283Y-89879284D01*
X121270817Y-90007097D01*
X121275799Y-90009420D01*
X121275804Y-90009423D01*
X121420011Y-90076667D01*
X121472773Y-90101270D01*
X121478081Y-90102692D01*
X121478083Y-90102693D01*
X121544465Y-90120480D01*
X121688014Y-90158944D01*
X121910000Y-90178365D01*
X122131986Y-90158944D01*
X122275535Y-90120480D01*
X122341917Y-90102693D01*
X122341919Y-90102692D01*
X122347227Y-90101270D01*
X122399989Y-90076667D01*
X122544196Y-90009423D01*
X122544201Y-90009420D01*
X122549183Y-90007097D01*
X122731717Y-89879284D01*
X122889284Y-89721717D01*
X123017097Y-89539182D01*
X123019420Y-89534200D01*
X123019423Y-89534195D01*
X123065805Y-89434727D01*
X123112722Y-89381442D01*
X123180999Y-89361981D01*
X123248959Y-89382523D01*
X123294195Y-89434727D01*
X123340577Y-89534195D01*
X123340580Y-89534200D01*
X123342903Y-89539182D01*
X123470716Y-89721717D01*
X123628283Y-89879284D01*
X123810817Y-90007097D01*
X123815799Y-90009420D01*
X123815804Y-90009423D01*
X123960011Y-90076667D01*
X124012773Y-90101270D01*
X124018081Y-90102692D01*
X124018083Y-90102693D01*
X124084465Y-90120480D01*
X124228014Y-90158944D01*
X124450000Y-90178365D01*
X124671986Y-90158944D01*
X124815535Y-90120480D01*
X124881917Y-90102693D01*
X124881919Y-90102692D01*
X124887227Y-90101270D01*
X124939989Y-90076667D01*
X125084196Y-90009423D01*
X125084201Y-90009420D01*
X125089183Y-90007097D01*
X125271717Y-89879284D01*
X125429284Y-89721717D01*
X125557097Y-89539182D01*
X125559420Y-89534200D01*
X125559423Y-89534195D01*
X125605805Y-89434727D01*
X125652722Y-89381442D01*
X125720999Y-89361981D01*
X125788959Y-89382523D01*
X125834195Y-89434727D01*
X125880577Y-89534195D01*
X125880580Y-89534200D01*
X125882903Y-89539182D01*
X126010716Y-89721717D01*
X126168283Y-89879284D01*
X126302772Y-89973455D01*
X126347099Y-90028911D01*
X126356500Y-90076667D01*
X126356500Y-99606233D01*
X126355973Y-99617416D01*
X126354298Y-99624909D01*
X126354547Y-99632835D01*
X126354547Y-99632836D01*
X126356438Y-99692986D01*
X126356500Y-99696945D01*
X126356500Y-99724856D01*
X126356997Y-99728790D01*
X126356997Y-99728791D01*
X126357005Y-99728856D01*
X126357938Y-99740693D01*
X126359327Y-99784889D01*
X126364978Y-99804339D01*
X126368987Y-99823700D01*
X126371526Y-99843797D01*
X126374445Y-99851168D01*
X126374445Y-99851170D01*
X126387804Y-99884912D01*
X126391649Y-99896142D01*
X126403982Y-99938593D01*
X126408015Y-99945412D01*
X126408017Y-99945417D01*
X126414293Y-99956028D01*
X126422988Y-99973776D01*
X126430448Y-99992617D01*
X126435110Y-99999033D01*
X126435110Y-99999034D01*
X126456436Y-100028387D01*
X126462952Y-100038307D01*
X126485458Y-100076362D01*
X126499779Y-100090683D01*
X126512619Y-100105716D01*
X126524528Y-100122107D01*
X126530634Y-100127158D01*
X126558605Y-100150298D01*
X126567384Y-100158288D01*
X133481348Y-107072253D01*
X133488888Y-107080539D01*
X133493000Y-107087018D01*
X133498777Y-107092443D01*
X133542651Y-107133643D01*
X133545493Y-107136398D01*
X133565230Y-107156135D01*
X133568427Y-107158615D01*
X133577447Y-107166318D01*
X133609679Y-107196586D01*
X133616625Y-107200405D01*
X133616628Y-107200407D01*
X133627434Y-107206348D01*
X133643953Y-107217199D01*
X133659959Y-107229614D01*
X133667228Y-107232759D01*
X133667232Y-107232762D01*
X133700537Y-107247174D01*
X133711187Y-107252391D01*
X133749940Y-107273695D01*
X133757615Y-107275666D01*
X133757616Y-107275666D01*
X133769562Y-107278733D01*
X133788267Y-107285137D01*
X133806855Y-107293181D01*
X133814678Y-107294420D01*
X133814688Y-107294423D01*
X133850524Y-107300099D01*
X133862144Y-107302505D01*
X133897289Y-107311528D01*
X133904970Y-107313500D01*
X133925224Y-107313500D01*
X133944934Y-107315051D01*
X133964943Y-107318220D01*
X133972835Y-107317474D01*
X134008961Y-107314059D01*
X134020819Y-107313500D01*
X141323119Y-107313500D01*
X141391240Y-107333502D01*
X141437733Y-107387158D01*
X141449119Y-107439500D01*
X141449119Y-108483500D01*
X158335406Y-108483500D01*
X158403527Y-108503502D01*
X158424501Y-108520405D01*
X159707878Y-109803783D01*
X159741904Y-109866095D01*
X159744093Y-109879706D01*
X159761458Y-110044928D01*
X159820473Y-110226556D01*
X159915960Y-110391944D01*
X159920378Y-110396851D01*
X159920379Y-110396852D01*
X159964753Y-110446134D01*
X160043747Y-110533866D01*
X160198248Y-110646118D01*
X160204276Y-110648802D01*
X160204278Y-110648803D01*
X160366681Y-110721109D01*
X160372712Y-110723794D01*
X160466112Y-110743647D01*
X160553056Y-110762128D01*
X160553061Y-110762128D01*
X160559513Y-110763500D01*
X160750487Y-110763500D01*
X160756939Y-110762128D01*
X160756944Y-110762128D01*
X160843888Y-110743647D01*
X160937288Y-110723794D01*
X160943319Y-110721109D01*
X161105722Y-110648803D01*
X161105724Y-110648802D01*
X161111752Y-110646118D01*
X161266253Y-110533866D01*
X161345247Y-110446134D01*
X161389621Y-110396852D01*
X161389622Y-110396851D01*
X161394040Y-110391944D01*
X161441784Y-110309250D01*
X161486226Y-110232274D01*
X161486227Y-110232272D01*
X161489527Y-110226556D01*
X161491567Y-110220277D01*
X161492394Y-110218420D01*
X161538374Y-110164325D01*
X161606301Y-110143676D01*
X161674609Y-110163029D01*
X161722606Y-110218420D01*
X161723433Y-110220277D01*
X161725473Y-110226556D01*
X161728773Y-110232272D01*
X161728774Y-110232274D01*
X161773216Y-110309250D01*
X161820960Y-110391944D01*
X161825378Y-110396851D01*
X161825379Y-110396852D01*
X161869753Y-110446134D01*
X161948747Y-110533866D01*
X162103248Y-110646118D01*
X162109276Y-110648802D01*
X162109278Y-110648803D01*
X162271681Y-110721109D01*
X162277712Y-110723794D01*
X162371112Y-110743647D01*
X162458056Y-110762128D01*
X162458061Y-110762128D01*
X162464513Y-110763500D01*
X162655487Y-110763500D01*
X162661939Y-110762128D01*
X162661944Y-110762128D01*
X162748888Y-110743647D01*
X162842288Y-110723794D01*
X162848319Y-110721109D01*
X163010722Y-110648803D01*
X163010724Y-110648802D01*
X163016752Y-110646118D01*
X163171253Y-110533866D01*
X163250247Y-110446134D01*
X163294621Y-110396852D01*
X163294622Y-110396851D01*
X163299040Y-110391944D01*
X163394527Y-110226556D01*
X163453542Y-110044928D01*
X163473504Y-109855000D01*
X163453542Y-109665072D01*
X163394527Y-109483444D01*
X163299040Y-109318056D01*
X163171253Y-109176134D01*
X163016752Y-109063882D01*
X163010724Y-109061198D01*
X163010722Y-109061197D01*
X162848319Y-108988891D01*
X162848318Y-108988891D01*
X162842288Y-108986206D01*
X162748887Y-108966353D01*
X162661944Y-108947872D01*
X162661939Y-108947872D01*
X162655487Y-108946500D01*
X162599594Y-108946500D01*
X162531473Y-108926498D01*
X162510499Y-108909595D01*
X162299499Y-108698595D01*
X162265473Y-108636283D01*
X162270538Y-108565468D01*
X162313085Y-108508632D01*
X162379605Y-108483821D01*
X162388594Y-108483500D01*
X196370881Y-108483500D01*
X196370881Y-92075000D01*
X197776526Y-92075000D01*
X197796391Y-92327403D01*
X197855495Y-92573591D01*
X197952384Y-92807502D01*
X198084672Y-93023376D01*
X198249102Y-93215898D01*
X198441624Y-93380328D01*
X198657498Y-93512616D01*
X198662068Y-93514509D01*
X198662072Y-93514511D01*
X198886836Y-93607611D01*
X198891409Y-93609505D01*
X198976032Y-93629821D01*
X199132784Y-93667454D01*
X199132790Y-93667455D01*
X199137597Y-93668609D01*
X199237416Y-93676465D01*
X199324345Y-93683307D01*
X199324352Y-93683307D01*
X199326801Y-93683500D01*
X199453199Y-93683500D01*
X199455648Y-93683307D01*
X199455655Y-93683307D01*
X199542584Y-93676465D01*
X199642403Y-93668609D01*
X199647210Y-93667455D01*
X199647216Y-93667454D01*
X199803968Y-93629821D01*
X199888591Y-93609505D01*
X199893164Y-93607611D01*
X200117928Y-93514511D01*
X200117932Y-93514509D01*
X200122502Y-93512616D01*
X200338376Y-93380328D01*
X200530898Y-93215898D01*
X200695328Y-93023376D01*
X200827616Y-92807502D01*
X200924505Y-92573591D01*
X200983609Y-92327403D01*
X201003474Y-92075000D01*
X200983609Y-91822597D01*
X200924505Y-91576409D01*
X200827616Y-91342498D01*
X200695328Y-91126624D01*
X200530898Y-90934102D01*
X200338376Y-90769672D01*
X200122502Y-90637384D01*
X200117932Y-90635491D01*
X200117928Y-90635489D01*
X199893164Y-90542389D01*
X199893162Y-90542388D01*
X199888591Y-90540495D01*
X199803968Y-90520179D01*
X199647216Y-90482546D01*
X199647210Y-90482545D01*
X199642403Y-90481391D01*
X199542584Y-90473535D01*
X199455655Y-90466693D01*
X199455648Y-90466693D01*
X199453199Y-90466500D01*
X199326801Y-90466500D01*
X199324352Y-90466693D01*
X199324345Y-90466693D01*
X199237416Y-90473535D01*
X199137597Y-90481391D01*
X199132790Y-90482545D01*
X199132784Y-90482546D01*
X198976032Y-90520179D01*
X198891409Y-90540495D01*
X198886838Y-90542388D01*
X198886836Y-90542389D01*
X198662072Y-90635489D01*
X198662068Y-90635491D01*
X198657498Y-90637384D01*
X198441624Y-90769672D01*
X198249102Y-90934102D01*
X198084672Y-91126624D01*
X197952384Y-91342498D01*
X197855495Y-91576409D01*
X197796391Y-91822597D01*
X197776526Y-92075000D01*
X196370881Y-92075000D01*
X196370881Y-88366500D01*
X146169500Y-88366500D01*
X146101379Y-88346498D01*
X146054886Y-88292842D01*
X146043500Y-88240500D01*
X146043500Y-88086866D01*
X146036745Y-88024684D01*
X145985615Y-87888295D01*
X145898261Y-87771739D01*
X145781705Y-87684385D01*
X145645316Y-87633255D01*
X145583134Y-87626500D01*
X143956866Y-87626500D01*
X143894684Y-87633255D01*
X143758295Y-87684385D01*
X143641739Y-87771739D01*
X143554385Y-87888295D01*
X143503255Y-88024684D01*
X143496500Y-88086866D01*
X143496500Y-88090282D01*
X143496316Y-88093680D01*
X143495101Y-88093614D01*
X143476498Y-88156969D01*
X143422842Y-88203462D01*
X143352568Y-88213566D01*
X143287988Y-88184072D01*
X143267287Y-88161119D01*
X143212443Y-88082794D01*
X143212441Y-88082791D01*
X143209284Y-88078283D01*
X143051717Y-87920716D01*
X143017424Y-87896703D01*
X142935113Y-87839068D01*
X142869183Y-87792903D01*
X142864201Y-87790580D01*
X142864196Y-87790577D01*
X142672209Y-87701053D01*
X142672208Y-87701053D01*
X142667227Y-87698730D01*
X142661919Y-87697308D01*
X142661917Y-87697307D01*
X142595536Y-87679520D01*
X142451986Y-87641056D01*
X142230000Y-87621635D01*
X142008014Y-87641056D01*
X141864464Y-87679520D01*
X141798083Y-87697307D01*
X141798081Y-87697308D01*
X141792773Y-87698730D01*
X141787792Y-87701052D01*
X141787791Y-87701053D01*
X141595805Y-87790577D01*
X141595800Y-87790580D01*
X141590818Y-87792903D01*
X141408283Y-87920716D01*
X141250716Y-88078283D01*
X141247559Y-88082791D01*
X141247557Y-88082794D01*
X141244706Y-88086866D01*
X141122903Y-88260818D01*
X141120580Y-88265800D01*
X141120577Y-88265805D01*
X141074195Y-88365273D01*
X141027278Y-88418558D01*
X140959001Y-88438019D01*
X140891041Y-88417477D01*
X140845805Y-88365273D01*
X140799423Y-88265805D01*
X140799420Y-88265800D01*
X140797097Y-88260818D01*
X140675294Y-88086866D01*
X140672443Y-88082794D01*
X140672441Y-88082791D01*
X140669284Y-88078283D01*
X140511717Y-87920716D01*
X140477424Y-87896703D01*
X140395113Y-87839068D01*
X140329183Y-87792903D01*
X140324201Y-87790580D01*
X140324196Y-87790577D01*
X140132209Y-87701053D01*
X140132208Y-87701053D01*
X140127227Y-87698730D01*
X140121919Y-87697308D01*
X140121917Y-87697307D01*
X140055536Y-87679520D01*
X139911986Y-87641056D01*
X139690000Y-87621635D01*
X139468014Y-87641056D01*
X139324464Y-87679520D01*
X139258083Y-87697307D01*
X139258081Y-87697308D01*
X139252773Y-87698730D01*
X139247792Y-87701052D01*
X139247791Y-87701053D01*
X139055805Y-87790577D01*
X139055800Y-87790580D01*
X139050818Y-87792903D01*
X138868283Y-87920716D01*
X138710716Y-88078283D01*
X138707559Y-88082791D01*
X138707557Y-88082794D01*
X138704706Y-88086866D01*
X138582903Y-88260818D01*
X138580580Y-88265800D01*
X138580577Y-88265805D01*
X138534195Y-88365273D01*
X138487278Y-88418558D01*
X138419001Y-88438019D01*
X138351041Y-88417477D01*
X138305805Y-88365273D01*
X138259423Y-88265805D01*
X138259420Y-88265800D01*
X138257097Y-88260818D01*
X138135294Y-88086866D01*
X138132443Y-88082794D01*
X138132441Y-88082791D01*
X138129284Y-88078283D01*
X137971717Y-87920716D01*
X137937424Y-87896703D01*
X137855113Y-87839068D01*
X137789183Y-87792903D01*
X137784201Y-87790580D01*
X137784196Y-87790577D01*
X137592209Y-87701053D01*
X137592208Y-87701053D01*
X137587227Y-87698730D01*
X137581919Y-87697308D01*
X137581917Y-87697307D01*
X137515536Y-87679520D01*
X137371986Y-87641056D01*
X137150000Y-87621635D01*
X136928014Y-87641056D01*
X136784464Y-87679520D01*
X136718083Y-87697307D01*
X136718081Y-87697308D01*
X136712773Y-87698730D01*
X136707792Y-87701052D01*
X136707791Y-87701053D01*
X136515805Y-87790577D01*
X136515800Y-87790580D01*
X136510818Y-87792903D01*
X136328283Y-87920716D01*
X136170716Y-88078283D01*
X136167559Y-88082791D01*
X136167557Y-88082794D01*
X136164706Y-88086866D01*
X136042903Y-88260818D01*
X136040580Y-88265800D01*
X136040577Y-88265805D01*
X135994195Y-88365273D01*
X135947278Y-88418558D01*
X135879001Y-88438019D01*
X135811041Y-88417477D01*
X135765805Y-88365273D01*
X135719423Y-88265805D01*
X135719420Y-88265800D01*
X135717097Y-88260818D01*
X135595294Y-88086866D01*
X135592443Y-88082794D01*
X135592441Y-88082791D01*
X135589284Y-88078283D01*
X135431717Y-87920716D01*
X135397424Y-87896703D01*
X135315113Y-87839068D01*
X135249183Y-87792903D01*
X135244201Y-87790580D01*
X135244196Y-87790577D01*
X135052209Y-87701053D01*
X135052208Y-87701053D01*
X135047227Y-87698730D01*
X135041919Y-87697308D01*
X135041917Y-87697307D01*
X134975536Y-87679520D01*
X134831986Y-87641056D01*
X134610000Y-87621635D01*
X134388014Y-87641056D01*
X134244464Y-87679520D01*
X134178083Y-87697307D01*
X134178081Y-87697308D01*
X134172773Y-87698730D01*
X134167792Y-87701052D01*
X134167791Y-87701053D01*
X133975805Y-87790577D01*
X133975800Y-87790580D01*
X133970818Y-87792903D01*
X133788283Y-87920716D01*
X133630716Y-88078283D01*
X133627559Y-88082791D01*
X133627557Y-88082794D01*
X133624706Y-88086866D01*
X133502903Y-88260818D01*
X133500580Y-88265800D01*
X133500577Y-88265805D01*
X133454195Y-88365273D01*
X133407278Y-88418558D01*
X133339001Y-88438019D01*
X133271041Y-88417477D01*
X133225805Y-88365273D01*
X133179423Y-88265805D01*
X133179420Y-88265800D01*
X133177097Y-88260818D01*
X133055294Y-88086866D01*
X133052443Y-88082794D01*
X133052441Y-88082791D01*
X133049284Y-88078283D01*
X132891717Y-87920716D01*
X132857424Y-87896703D01*
X132775113Y-87839068D01*
X132709183Y-87792903D01*
X132704201Y-87790580D01*
X132704196Y-87790577D01*
X132512209Y-87701053D01*
X132512208Y-87701053D01*
X132507227Y-87698730D01*
X132501919Y-87697308D01*
X132501917Y-87697307D01*
X132435536Y-87679520D01*
X132291986Y-87641056D01*
X132070000Y-87621635D01*
X131848014Y-87641056D01*
X131704464Y-87679520D01*
X131638083Y-87697307D01*
X131638081Y-87697308D01*
X131632773Y-87698730D01*
X131627792Y-87701052D01*
X131627791Y-87701053D01*
X131435805Y-87790577D01*
X131435800Y-87790580D01*
X131430818Y-87792903D01*
X131248283Y-87920716D01*
X131090716Y-88078283D01*
X131087559Y-88082791D01*
X131087557Y-88082794D01*
X131084706Y-88086866D01*
X130962903Y-88260818D01*
X130960580Y-88265800D01*
X130960577Y-88265805D01*
X130914195Y-88365273D01*
X130867278Y-88418558D01*
X130799001Y-88438019D01*
X130731041Y-88417477D01*
X130685805Y-88365273D01*
X130639423Y-88265805D01*
X130639420Y-88265800D01*
X130637097Y-88260818D01*
X130515294Y-88086866D01*
X130512443Y-88082794D01*
X130512441Y-88082791D01*
X130509284Y-88078283D01*
X130351717Y-87920716D01*
X130317424Y-87896703D01*
X130235113Y-87839068D01*
X130169183Y-87792903D01*
X130164201Y-87790580D01*
X130164196Y-87790577D01*
X129972209Y-87701053D01*
X129972208Y-87701053D01*
X129967227Y-87698730D01*
X129961919Y-87697308D01*
X129961917Y-87697307D01*
X129895536Y-87679520D01*
X129751986Y-87641056D01*
X129530000Y-87621635D01*
X129308014Y-87641056D01*
X129164464Y-87679520D01*
X129098083Y-87697307D01*
X129098081Y-87697308D01*
X129092773Y-87698730D01*
X129087792Y-87701052D01*
X129087791Y-87701053D01*
X128895805Y-87790577D01*
X128895800Y-87790580D01*
X128890818Y-87792903D01*
X128708283Y-87920716D01*
X128550716Y-88078283D01*
X128547559Y-88082791D01*
X128547557Y-88082794D01*
X128544706Y-88086866D01*
X128422903Y-88260818D01*
X128420580Y-88265800D01*
X128420577Y-88265805D01*
X128374195Y-88365273D01*
X128327278Y-88418558D01*
X128259001Y-88438019D01*
X128191041Y-88417477D01*
X128145805Y-88365273D01*
X128099423Y-88265805D01*
X128099420Y-88265800D01*
X128097097Y-88260818D01*
X127975294Y-88086866D01*
X127972443Y-88082794D01*
X127972441Y-88082791D01*
X127969284Y-88078283D01*
X127811717Y-87920716D01*
X127777424Y-87896703D01*
X127695113Y-87839068D01*
X127629183Y-87792903D01*
X127624201Y-87790580D01*
X127624196Y-87790577D01*
X127432209Y-87701053D01*
X127432208Y-87701053D01*
X127427227Y-87698730D01*
X127421919Y-87697308D01*
X127421917Y-87697307D01*
X127355536Y-87679520D01*
X127211986Y-87641056D01*
X126990000Y-87621635D01*
X126768014Y-87641056D01*
X126624464Y-87679520D01*
X126558083Y-87697307D01*
X126558081Y-87697308D01*
X126552773Y-87698730D01*
X126547792Y-87701052D01*
X126547791Y-87701053D01*
X126355805Y-87790577D01*
X126355800Y-87790580D01*
X126350818Y-87792903D01*
X126168283Y-87920716D01*
X126010716Y-88078283D01*
X126007559Y-88082791D01*
X126007557Y-88082794D01*
X126004706Y-88086866D01*
X125882903Y-88260818D01*
X125880580Y-88265800D01*
X125880577Y-88265805D01*
X125834195Y-88365273D01*
X125787278Y-88418558D01*
X125719001Y-88438019D01*
X125651041Y-88417477D01*
X125605805Y-88365273D01*
X125559423Y-88265805D01*
X125559420Y-88265800D01*
X125557097Y-88260818D01*
X125435294Y-88086866D01*
X125432443Y-88082794D01*
X125432441Y-88082791D01*
X125429284Y-88078283D01*
X125271717Y-87920716D01*
X125237424Y-87896703D01*
X125155113Y-87839068D01*
X125089183Y-87792903D01*
X125084201Y-87790580D01*
X125084196Y-87790577D01*
X124892209Y-87701053D01*
X124892208Y-87701053D01*
X124887227Y-87698730D01*
X124881919Y-87697308D01*
X124881917Y-87697307D01*
X124815536Y-87679520D01*
X124671986Y-87641056D01*
X124450000Y-87621635D01*
X124228014Y-87641056D01*
X124084464Y-87679520D01*
X124018083Y-87697307D01*
X124018081Y-87697308D01*
X124012773Y-87698730D01*
X124007792Y-87701052D01*
X124007791Y-87701053D01*
X123815805Y-87790577D01*
X123815800Y-87790580D01*
X123810818Y-87792903D01*
X123628283Y-87920716D01*
X123470716Y-88078283D01*
X123467559Y-88082791D01*
X123467557Y-88082794D01*
X123464706Y-88086866D01*
X123342903Y-88260818D01*
X123340580Y-88265800D01*
X123340577Y-88265805D01*
X123294195Y-88365273D01*
X123247278Y-88418558D01*
X123179001Y-88438019D01*
X123111041Y-88417477D01*
X123065805Y-88365273D01*
X123019423Y-88265805D01*
X123019420Y-88265800D01*
X123017097Y-88260818D01*
X122895294Y-88086866D01*
X122892443Y-88082794D01*
X122892441Y-88082791D01*
X122889284Y-88078283D01*
X122731717Y-87920716D01*
X122697424Y-87896703D01*
X122615113Y-87839068D01*
X122549183Y-87792903D01*
X122544201Y-87790580D01*
X122544196Y-87790577D01*
X122352209Y-87701053D01*
X122352208Y-87701053D01*
X122347227Y-87698730D01*
X122341919Y-87697308D01*
X122341917Y-87697307D01*
X122275536Y-87679520D01*
X122131986Y-87641056D01*
X121910000Y-87621635D01*
X121688014Y-87641056D01*
X121544464Y-87679520D01*
X121478083Y-87697307D01*
X121478081Y-87697308D01*
X121472773Y-87698730D01*
X121467792Y-87701052D01*
X121467791Y-87701053D01*
X121275805Y-87790577D01*
X121275800Y-87790580D01*
X121270818Y-87792903D01*
X121088283Y-87920716D01*
X120930716Y-88078283D01*
X120927559Y-88082791D01*
X120927557Y-88082794D01*
X120924706Y-88086866D01*
X120802903Y-88260818D01*
X120800580Y-88265800D01*
X120800577Y-88265805D01*
X120754195Y-88365273D01*
X120707278Y-88418558D01*
X120639001Y-88438019D01*
X120571041Y-88417477D01*
X120525805Y-88365273D01*
X120479423Y-88265805D01*
X120479420Y-88265800D01*
X120477097Y-88260818D01*
X120355294Y-88086866D01*
X120352443Y-88082794D01*
X120352441Y-88082791D01*
X120349284Y-88078283D01*
X120191717Y-87920716D01*
X120157424Y-87896703D01*
X120075113Y-87839068D01*
X120009183Y-87792903D01*
X120004201Y-87790580D01*
X120004196Y-87790577D01*
X119812209Y-87701053D01*
X119812208Y-87701053D01*
X119807227Y-87698730D01*
X119801919Y-87697308D01*
X119801917Y-87697307D01*
X119735536Y-87679520D01*
X119591986Y-87641056D01*
X119370000Y-87621635D01*
X119148014Y-87641056D01*
X119004464Y-87679520D01*
X118938083Y-87697307D01*
X118938081Y-87697308D01*
X118932773Y-87698730D01*
X118927792Y-87701052D01*
X118927791Y-87701053D01*
X118735805Y-87790577D01*
X118735800Y-87790580D01*
X118730818Y-87792903D01*
X118548283Y-87920716D01*
X118390716Y-88078283D01*
X118387559Y-88082791D01*
X118387557Y-88082794D01*
X118384706Y-88086866D01*
X118262903Y-88260818D01*
X118260580Y-88265800D01*
X118260577Y-88265805D01*
X118214195Y-88365273D01*
X118167278Y-88418558D01*
X118099001Y-88438019D01*
X118031041Y-88417477D01*
X117985805Y-88365273D01*
X117939423Y-88265805D01*
X117939420Y-88265800D01*
X117937097Y-88260818D01*
X117815294Y-88086866D01*
X117812443Y-88082794D01*
X117812441Y-88082791D01*
X117809284Y-88078283D01*
X117651717Y-87920716D01*
X117617424Y-87896703D01*
X117535113Y-87839068D01*
X117469183Y-87792903D01*
X117464201Y-87790580D01*
X117464196Y-87790577D01*
X117272209Y-87701053D01*
X117272208Y-87701053D01*
X117267227Y-87698730D01*
X117261919Y-87697308D01*
X117261917Y-87697307D01*
X117195536Y-87679520D01*
X117051986Y-87641056D01*
X116830000Y-87621635D01*
X116608014Y-87641056D01*
X116464464Y-87679520D01*
X116398083Y-87697307D01*
X116398081Y-87697308D01*
X116392773Y-87698730D01*
X116387792Y-87701052D01*
X116387791Y-87701053D01*
X116195805Y-87790577D01*
X116195800Y-87790580D01*
X116190818Y-87792903D01*
X116008283Y-87920716D01*
X115850716Y-88078283D01*
X115847559Y-88082791D01*
X115847557Y-88082794D01*
X115844706Y-88086866D01*
X115722903Y-88260818D01*
X115720580Y-88265800D01*
X115720577Y-88265805D01*
X115674195Y-88365273D01*
X115627278Y-88418558D01*
X115559001Y-88438019D01*
X115491041Y-88417477D01*
X115445805Y-88365273D01*
X115399423Y-88265805D01*
X115399420Y-88265800D01*
X115397097Y-88260818D01*
X115275294Y-88086866D01*
X115272443Y-88082794D01*
X115272441Y-88082791D01*
X115269284Y-88078283D01*
X115111717Y-87920716D01*
X115077424Y-87896703D01*
X114995113Y-87839068D01*
X114929183Y-87792903D01*
X114924201Y-87790580D01*
X114924196Y-87790577D01*
X114732209Y-87701053D01*
X114732208Y-87701053D01*
X114727227Y-87698730D01*
X114721919Y-87697308D01*
X114721917Y-87697307D01*
X114655536Y-87679520D01*
X114511986Y-87641056D01*
X114290000Y-87621635D01*
X114068014Y-87641056D01*
X113924464Y-87679520D01*
X113858083Y-87697307D01*
X113858081Y-87697308D01*
X113852773Y-87698730D01*
X113847792Y-87701052D01*
X113847791Y-87701053D01*
X113655805Y-87790577D01*
X113655800Y-87790580D01*
X113650818Y-87792903D01*
X113468283Y-87920716D01*
X113310716Y-88078283D01*
X113307559Y-88082791D01*
X113307557Y-88082794D01*
X113304706Y-88086866D01*
X113182903Y-88260818D01*
X113180580Y-88265800D01*
X113180577Y-88265805D01*
X113133919Y-88365865D01*
X113087002Y-88419150D01*
X113018725Y-88438611D01*
X112950765Y-88418069D01*
X112905529Y-88365865D01*
X112858988Y-88266056D01*
X112853505Y-88256561D01*
X112822360Y-88212081D01*
X112811883Y-88203706D01*
X112798436Y-88210774D01*
X112122022Y-88887188D01*
X112114408Y-88901132D01*
X112114539Y-88902965D01*
X112118790Y-88909580D01*
X112799157Y-89589947D01*
X112810932Y-89596377D01*
X112822947Y-89587081D01*
X112853505Y-89543439D01*
X112858988Y-89533944D01*
X112905529Y-89434135D01*
X112952446Y-89380850D01*
X113020723Y-89361389D01*
X113088683Y-89381931D01*
X113133919Y-89434135D01*
X113180577Y-89534195D01*
X113180580Y-89534200D01*
X113182903Y-89539182D01*
X113310716Y-89721717D01*
X113468283Y-89879284D01*
X113650817Y-90007097D01*
X113655799Y-90009420D01*
X113655804Y-90009423D01*
X113800011Y-90076667D01*
X113852773Y-90101270D01*
X113858081Y-90102692D01*
X113858083Y-90102693D01*
X113924465Y-90120480D01*
X114068014Y-90158944D01*
X114290000Y-90178365D01*
X114511986Y-90158944D01*
X114655535Y-90120480D01*
X114721917Y-90102693D01*
X114721919Y-90102692D01*
X114727227Y-90101270D01*
X114779989Y-90076667D01*
X114924196Y-90009423D01*
X114924201Y-90009420D01*
X114929183Y-90007097D01*
X115111717Y-89879284D01*
X115269284Y-89721717D01*
X115397097Y-89539182D01*
X115399420Y-89534200D01*
X115399423Y-89534195D01*
X115445805Y-89434727D01*
X115492722Y-89381442D01*
X115560999Y-89361981D01*
X115628959Y-89382523D01*
X115674195Y-89434727D01*
X115720577Y-89534195D01*
X115720580Y-89534200D01*
X115722903Y-89539182D01*
X115850716Y-89721717D01*
X116008283Y-89879284D01*
X116190817Y-90007097D01*
X116195799Y-90009420D01*
X116195804Y-90009423D01*
X116340011Y-90076667D01*
X116392773Y-90101270D01*
X116398081Y-90102692D01*
X116398083Y-90102693D01*
X116464465Y-90120480D01*
X116608014Y-90158944D01*
X116830000Y-90178365D01*
X117051986Y-90158944D01*
X117195535Y-90120480D01*
X117261917Y-90102693D01*
X117261919Y-90102692D01*
X117267227Y-90101270D01*
X117319989Y-90076667D01*
X117464196Y-90009423D01*
X117464201Y-90009420D01*
X117469183Y-90007097D01*
X117651717Y-89879284D01*
X117809284Y-89721717D01*
X117937097Y-89539182D01*
X117939420Y-89534200D01*
X117939423Y-89534195D01*
X117985805Y-89434727D01*
X118032722Y-89381442D01*
X118100999Y-89361981D01*
X118168959Y-89382523D01*
X118214195Y-89434727D01*
X118260577Y-89534195D01*
X118260580Y-89534200D01*
X118262903Y-89539182D01*
X118390716Y-89721717D01*
X118548283Y-89879284D01*
X118682772Y-89973455D01*
X118727099Y-90028911D01*
X118736500Y-90076667D01*
X118736500Y-100241233D01*
X118735973Y-100252416D01*
X118734298Y-100259909D01*
X118734547Y-100267835D01*
X118734547Y-100267836D01*
X118736438Y-100327986D01*
X118736500Y-100331945D01*
X118736500Y-100359856D01*
X118736997Y-100363790D01*
X118736997Y-100363791D01*
X118737005Y-100363856D01*
X118737938Y-100375693D01*
X118739327Y-100419889D01*
X118744978Y-100439339D01*
X118748987Y-100458700D01*
X118751526Y-100478797D01*
X118754445Y-100486168D01*
X118754445Y-100486170D01*
X118767804Y-100519912D01*
X118771649Y-100531142D01*
X118783982Y-100573593D01*
X118788015Y-100580412D01*
X118788017Y-100580417D01*
X118794293Y-100591028D01*
X118802988Y-100608776D01*
X118810448Y-100627617D01*
X118815110Y-100634033D01*
X118815110Y-100634034D01*
X118836436Y-100663387D01*
X118842952Y-100673307D01*
X118865458Y-100711362D01*
X118879779Y-100725683D01*
X118892619Y-100740716D01*
X118904528Y-100757107D01*
X118910634Y-100762158D01*
X118938605Y-100785298D01*
X118947384Y-100793288D01*
X130335501Y-112181405D01*
X130369527Y-112243717D01*
X130364462Y-112314532D01*
X130321915Y-112371368D01*
X130255395Y-112396179D01*
X130246406Y-112396500D01*
X127713768Y-112396500D01*
X127702585Y-112395973D01*
X127695092Y-112394298D01*
X127687166Y-112394547D01*
X127687165Y-112394547D01*
X127627002Y-112396438D01*
X127623044Y-112396500D01*
X127595144Y-112396500D01*
X127591154Y-112397004D01*
X127579320Y-112397936D01*
X127535111Y-112399326D01*
X127527497Y-112401538D01*
X127527492Y-112401539D01*
X127515659Y-112404977D01*
X127496296Y-112408988D01*
X127476203Y-112411526D01*
X127468836Y-112414443D01*
X127468831Y-112414444D01*
X127435092Y-112427802D01*
X127423865Y-112431646D01*
X127381407Y-112443982D01*
X127374581Y-112448019D01*
X127363972Y-112454293D01*
X127346224Y-112462988D01*
X127327383Y-112470448D01*
X127320967Y-112475110D01*
X127320966Y-112475110D01*
X127291613Y-112496436D01*
X127281693Y-112502952D01*
X127250465Y-112521420D01*
X127250462Y-112521422D01*
X127243638Y-112525458D01*
X127229317Y-112539779D01*
X127214284Y-112552619D01*
X127197893Y-112564528D01*
X127171516Y-112596413D01*
X127169712Y-112598593D01*
X127161722Y-112607374D01*
X126737280Y-113031815D01*
X126680797Y-113064426D01*
X126552773Y-113098730D01*
X126547792Y-113101052D01*
X126547791Y-113101053D01*
X126355805Y-113190577D01*
X126355800Y-113190580D01*
X126350818Y-113192903D01*
X126344766Y-113197141D01*
X126184404Y-113309428D01*
X126168283Y-113320716D01*
X126010716Y-113478283D01*
X125882903Y-113660818D01*
X125880580Y-113665800D01*
X125880577Y-113665805D01*
X125834195Y-113765273D01*
X125787278Y-113818558D01*
X125719001Y-113838019D01*
X125651041Y-113817477D01*
X125605805Y-113765273D01*
X125559423Y-113665805D01*
X125559420Y-113665800D01*
X125557097Y-113660818D01*
X125429284Y-113478283D01*
X125271717Y-113320716D01*
X125255597Y-113309428D01*
X125095235Y-113197141D01*
X125089183Y-113192903D01*
X125084201Y-113190580D01*
X125084196Y-113190577D01*
X124892209Y-113101053D01*
X124892208Y-113101053D01*
X124887227Y-113098730D01*
X124881919Y-113097308D01*
X124881917Y-113097307D01*
X124794434Y-113073866D01*
X124671986Y-113041056D01*
X124450000Y-113021635D01*
X124228014Y-113041056D01*
X124105566Y-113073866D01*
X124018083Y-113097307D01*
X124018081Y-113097308D01*
X124012773Y-113098730D01*
X124007792Y-113101052D01*
X124007791Y-113101053D01*
X123815805Y-113190577D01*
X123815800Y-113190580D01*
X123810818Y-113192903D01*
X123804766Y-113197141D01*
X123644404Y-113309428D01*
X123628283Y-113320716D01*
X123470716Y-113478283D01*
X123342903Y-113660818D01*
X123340580Y-113665800D01*
X123340577Y-113665805D01*
X123294195Y-113765273D01*
X123247278Y-113818558D01*
X123179001Y-113838019D01*
X123111041Y-113817477D01*
X123065805Y-113765273D01*
X123019423Y-113665805D01*
X123019420Y-113665800D01*
X123017097Y-113660818D01*
X122889284Y-113478283D01*
X122731717Y-113320716D01*
X122715597Y-113309428D01*
X122555235Y-113197141D01*
X122549183Y-113192903D01*
X122544201Y-113190580D01*
X122544196Y-113190577D01*
X122352209Y-113101053D01*
X122352208Y-113101053D01*
X122347227Y-113098730D01*
X122341919Y-113097308D01*
X122341917Y-113097307D01*
X122254434Y-113073866D01*
X122131986Y-113041056D01*
X121910000Y-113021635D01*
X121688014Y-113041056D01*
X121565566Y-113073866D01*
X121478083Y-113097307D01*
X121478081Y-113097308D01*
X121472773Y-113098730D01*
X121467792Y-113101052D01*
X121467791Y-113101053D01*
X121275805Y-113190577D01*
X121275800Y-113190580D01*
X121270818Y-113192903D01*
X121264766Y-113197141D01*
X121104404Y-113309428D01*
X121088283Y-113320716D01*
X120930716Y-113478283D01*
X120802903Y-113660818D01*
X120800580Y-113665800D01*
X120800577Y-113665805D01*
X120754195Y-113765273D01*
X120707278Y-113818558D01*
X120639001Y-113838019D01*
X120571041Y-113817477D01*
X120525805Y-113765273D01*
X120479423Y-113665805D01*
X120479420Y-113665800D01*
X120477097Y-113660818D01*
X120349284Y-113478283D01*
X120191717Y-113320716D01*
X120175597Y-113309428D01*
X120015235Y-113197141D01*
X120009183Y-113192903D01*
X120004201Y-113190580D01*
X120004196Y-113190577D01*
X119812209Y-113101053D01*
X119812208Y-113101053D01*
X119807227Y-113098730D01*
X119801919Y-113097308D01*
X119801917Y-113097307D01*
X119714434Y-113073866D01*
X119591986Y-113041056D01*
X119370000Y-113021635D01*
X119148014Y-113041056D01*
X119025566Y-113073866D01*
X118938083Y-113097307D01*
X118938081Y-113097308D01*
X118932773Y-113098730D01*
X118927792Y-113101052D01*
X118927791Y-113101053D01*
X118735805Y-113190577D01*
X118735800Y-113190580D01*
X118730818Y-113192903D01*
X118724766Y-113197141D01*
X118564404Y-113309428D01*
X118548283Y-113320716D01*
X118390716Y-113478283D01*
X118262903Y-113660818D01*
X118260580Y-113665800D01*
X118260577Y-113665805D01*
X118214195Y-113765273D01*
X118167278Y-113818558D01*
X118099001Y-113838019D01*
X118031041Y-113817477D01*
X117985805Y-113765273D01*
X117939423Y-113665805D01*
X117939420Y-113665800D01*
X117937097Y-113660818D01*
X117809284Y-113478283D01*
X117651717Y-113320716D01*
X117635597Y-113309428D01*
X117475235Y-113197141D01*
X117469183Y-113192903D01*
X117464201Y-113190580D01*
X117464196Y-113190577D01*
X117272209Y-113101053D01*
X117272208Y-113101053D01*
X117267227Y-113098730D01*
X117261919Y-113097308D01*
X117261917Y-113097307D01*
X117174434Y-113073866D01*
X117051986Y-113041056D01*
X116830000Y-113021635D01*
X116608014Y-113041056D01*
X116485566Y-113073866D01*
X116398083Y-113097307D01*
X116398081Y-113097308D01*
X116392773Y-113098730D01*
X116387792Y-113101052D01*
X116387791Y-113101053D01*
X116195805Y-113190577D01*
X116195800Y-113190580D01*
X116190818Y-113192903D01*
X116184766Y-113197141D01*
X116024404Y-113309428D01*
X116008283Y-113320716D01*
X115850716Y-113478283D01*
X115722903Y-113660818D01*
X115720580Y-113665800D01*
X115720577Y-113665805D01*
X115674195Y-113765273D01*
X115627278Y-113818558D01*
X115559001Y-113838019D01*
X115491041Y-113817477D01*
X115445805Y-113765273D01*
X115399423Y-113665805D01*
X115399420Y-113665800D01*
X115397097Y-113660818D01*
X115269284Y-113478283D01*
X115111717Y-113320716D01*
X115095597Y-113309428D01*
X114935235Y-113197141D01*
X114929183Y-113192903D01*
X114924201Y-113190580D01*
X114924196Y-113190577D01*
X114732209Y-113101053D01*
X114732208Y-113101053D01*
X114727227Y-113098730D01*
X114721919Y-113097308D01*
X114721917Y-113097307D01*
X114634434Y-113073866D01*
X114511986Y-113041056D01*
X114290000Y-113021635D01*
X114068014Y-113041056D01*
X113945566Y-113073866D01*
X113858083Y-113097307D01*
X113858081Y-113097308D01*
X113852773Y-113098730D01*
X113847792Y-113101052D01*
X113847791Y-113101053D01*
X113655805Y-113190577D01*
X113655800Y-113190580D01*
X113650818Y-113192903D01*
X113644766Y-113197141D01*
X113484404Y-113309428D01*
X113468283Y-113320716D01*
X113310716Y-113478283D01*
X113182903Y-113660818D01*
X113180580Y-113665800D01*
X113180577Y-113665805D01*
X113134195Y-113765273D01*
X113087278Y-113818558D01*
X113019001Y-113838019D01*
X112951041Y-113817477D01*
X112905805Y-113765273D01*
X112859423Y-113665805D01*
X112859420Y-113665800D01*
X112857097Y-113660818D01*
X112729284Y-113478283D01*
X112571717Y-113320716D01*
X112555597Y-113309428D01*
X112395235Y-113197141D01*
X112389183Y-113192903D01*
X112384201Y-113190580D01*
X112384196Y-113190577D01*
X112192209Y-113101053D01*
X112192208Y-113101053D01*
X112187227Y-113098730D01*
X112181919Y-113097308D01*
X112181917Y-113097307D01*
X112094434Y-113073866D01*
X111971986Y-113041056D01*
X111750000Y-113021635D01*
X111528014Y-113041056D01*
X111405566Y-113073866D01*
X111318083Y-113097307D01*
X111318081Y-113097308D01*
X111312773Y-113098730D01*
X111307792Y-113101052D01*
X111307791Y-113101053D01*
X111115805Y-113190577D01*
X111115800Y-113190580D01*
X111110818Y-113192903D01*
X111104766Y-113197141D01*
X110944404Y-113309428D01*
X110928283Y-113320716D01*
X110770716Y-113478283D01*
X110642903Y-113660818D01*
X110640580Y-113665800D01*
X110640577Y-113665805D01*
X110594195Y-113765273D01*
X110547278Y-113818558D01*
X110479001Y-113838019D01*
X110411041Y-113817477D01*
X110365805Y-113765273D01*
X110319423Y-113665805D01*
X110319420Y-113665800D01*
X110317097Y-113660818D01*
X110189284Y-113478283D01*
X110031717Y-113320716D01*
X110015597Y-113309428D01*
X109855235Y-113197141D01*
X109849183Y-113192903D01*
X109844201Y-113190580D01*
X109844196Y-113190577D01*
X109652209Y-113101053D01*
X109652208Y-113101053D01*
X109647227Y-113098730D01*
X109641919Y-113097308D01*
X109641917Y-113097307D01*
X109554434Y-113073866D01*
X109431986Y-113041056D01*
X109210000Y-113021635D01*
X108988014Y-113041056D01*
X108865566Y-113073866D01*
X108778083Y-113097307D01*
X108778081Y-113097308D01*
X108772773Y-113098730D01*
X108767792Y-113101052D01*
X108767791Y-113101053D01*
X108575805Y-113190577D01*
X108575800Y-113190580D01*
X108570818Y-113192903D01*
X108564766Y-113197141D01*
X108404404Y-113309428D01*
X108388283Y-113320716D01*
X108230716Y-113478283D01*
X108102903Y-113660818D01*
X108100580Y-113665800D01*
X108100577Y-113665805D01*
X108054195Y-113765273D01*
X108007278Y-113818558D01*
X107939001Y-113838019D01*
X107871041Y-113817477D01*
X107825805Y-113765273D01*
X107779423Y-113665805D01*
X107779420Y-113665800D01*
X107777097Y-113660818D01*
X107649284Y-113478283D01*
X107491717Y-113320716D01*
X107475597Y-113309428D01*
X107315235Y-113197141D01*
X107309183Y-113192903D01*
X107304201Y-113190580D01*
X107304196Y-113190577D01*
X107112209Y-113101053D01*
X107112208Y-113101053D01*
X107107227Y-113098730D01*
X107101919Y-113097308D01*
X107101917Y-113097307D01*
X107014434Y-113073866D01*
X106891986Y-113041056D01*
X106670000Y-113021635D01*
X106448014Y-113041056D01*
X106325566Y-113073866D01*
X106238083Y-113097307D01*
X106238081Y-113097308D01*
X106232773Y-113098730D01*
X106227792Y-113101052D01*
X106227791Y-113101053D01*
X106035805Y-113190577D01*
X106035800Y-113190580D01*
X106030818Y-113192903D01*
X106024766Y-113197141D01*
X105864404Y-113309428D01*
X105848283Y-113320716D01*
X105690716Y-113478283D01*
X105562903Y-113660818D01*
X105560580Y-113665800D01*
X105560577Y-113665805D01*
X105514195Y-113765273D01*
X105467278Y-113818558D01*
X105399001Y-113838019D01*
X105331041Y-113817477D01*
X105285805Y-113765273D01*
X105239423Y-113665805D01*
X105239420Y-113665800D01*
X105237097Y-113660818D01*
X105109284Y-113478283D01*
X104951717Y-113320716D01*
X104935597Y-113309428D01*
X104775235Y-113197141D01*
X104769183Y-113192903D01*
X104764201Y-113190580D01*
X104764196Y-113190577D01*
X104572209Y-113101053D01*
X104572208Y-113101053D01*
X104567227Y-113098730D01*
X104561919Y-113097308D01*
X104561917Y-113097307D01*
X104474434Y-113073866D01*
X104351986Y-113041056D01*
X104130000Y-113021635D01*
X103908014Y-113041056D01*
X103785566Y-113073866D01*
X103698083Y-113097307D01*
X103698081Y-113097308D01*
X103692773Y-113098730D01*
X103687792Y-113101052D01*
X103687791Y-113101053D01*
X103495805Y-113190577D01*
X103495800Y-113190580D01*
X103490818Y-113192903D01*
X103484766Y-113197141D01*
X103324404Y-113309428D01*
X103308283Y-113320716D01*
X103150716Y-113478283D01*
X103022903Y-113660818D01*
X103020580Y-113665800D01*
X103020577Y-113665805D01*
X102974195Y-113765273D01*
X102927278Y-113818558D01*
X102859001Y-113838019D01*
X102791041Y-113817477D01*
X102745805Y-113765273D01*
X102699423Y-113665805D01*
X102699420Y-113665800D01*
X102697097Y-113660818D01*
X102569284Y-113478283D01*
X102411717Y-113320716D01*
X102395597Y-113309428D01*
X102235235Y-113197141D01*
X102229183Y-113192903D01*
X102224201Y-113190580D01*
X102224196Y-113190577D01*
X102032209Y-113101053D01*
X102032208Y-113101053D01*
X102027227Y-113098730D01*
X102021919Y-113097308D01*
X102021917Y-113097307D01*
X101934434Y-113073866D01*
X101811986Y-113041056D01*
X101590000Y-113021635D01*
X101368014Y-113041056D01*
X101245566Y-113073866D01*
X101158083Y-113097307D01*
X101158081Y-113097308D01*
X101152773Y-113098730D01*
X101147792Y-113101052D01*
X101147791Y-113101053D01*
X100955805Y-113190577D01*
X100955800Y-113190580D01*
X100950818Y-113192903D01*
X100944766Y-113197141D01*
X100784404Y-113309428D01*
X100768283Y-113320716D01*
X100610716Y-113478283D01*
X100482903Y-113660818D01*
X100480580Y-113665800D01*
X100480577Y-113665805D01*
X100434195Y-113765273D01*
X100387278Y-113818558D01*
X100319001Y-113838019D01*
X100251041Y-113817477D01*
X100205805Y-113765273D01*
X100159423Y-113665805D01*
X100159420Y-113665800D01*
X100157097Y-113660818D01*
X100029284Y-113478283D01*
X99871717Y-113320716D01*
X99855597Y-113309428D01*
X99695235Y-113197141D01*
X99689183Y-113192903D01*
X99684201Y-113190580D01*
X99684196Y-113190577D01*
X99492209Y-113101053D01*
X99492208Y-113101053D01*
X99487227Y-113098730D01*
X99481919Y-113097308D01*
X99481917Y-113097307D01*
X99394434Y-113073866D01*
X99271986Y-113041056D01*
X99050000Y-113021635D01*
X98828014Y-113041056D01*
X98705566Y-113073866D01*
X98618083Y-113097307D01*
X98618081Y-113097308D01*
X98612773Y-113098730D01*
X98607792Y-113101052D01*
X98607791Y-113101053D01*
X98415805Y-113190577D01*
X98415800Y-113190580D01*
X98410818Y-113192903D01*
X98404766Y-113197141D01*
X98244404Y-113309428D01*
X98228283Y-113320716D01*
X98070716Y-113478283D01*
X97942903Y-113660818D01*
X97940580Y-113665800D01*
X97940577Y-113665805D01*
X97878763Y-113798366D01*
X97848730Y-113862773D01*
X97847308Y-113868081D01*
X97847307Y-113868083D01*
X97840422Y-113893780D01*
X97791056Y-114078014D01*
X97771635Y-114300000D01*
X97791056Y-114521986D01*
X97848730Y-114737227D01*
X97851052Y-114742208D01*
X97851053Y-114742209D01*
X97940577Y-114934195D01*
X97940580Y-114934200D01*
X97942903Y-114939182D01*
X98070716Y-115121717D01*
X98228283Y-115279284D01*
X98410817Y-115407097D01*
X98415799Y-115409420D01*
X98415804Y-115409423D01*
X98606779Y-115498475D01*
X98612773Y-115501270D01*
X98618081Y-115502692D01*
X98618083Y-115502693D01*
X98684464Y-115520480D01*
X98828014Y-115558944D01*
X99050000Y-115578365D01*
X99271986Y-115558944D01*
X99415536Y-115520480D01*
X99481917Y-115502693D01*
X99481919Y-115502692D01*
X99487227Y-115501270D01*
X99493221Y-115498475D01*
X99684196Y-115409423D01*
X99684201Y-115409420D01*
X99689183Y-115407097D01*
X99871717Y-115279284D01*
X100029284Y-115121717D01*
X100157097Y-114939182D01*
X100159420Y-114934200D01*
X100159423Y-114934195D01*
X100205805Y-114834727D01*
X100252722Y-114781442D01*
X100320999Y-114761981D01*
X100388959Y-114782523D01*
X100434195Y-114834727D01*
X100480577Y-114934195D01*
X100480580Y-114934200D01*
X100482903Y-114939182D01*
X100610716Y-115121717D01*
X100768283Y-115279284D01*
X100950817Y-115407097D01*
X100955799Y-115409420D01*
X100955804Y-115409423D01*
X101146779Y-115498475D01*
X101152773Y-115501270D01*
X101158081Y-115502692D01*
X101158083Y-115502693D01*
X101224464Y-115520480D01*
X101368014Y-115558944D01*
X101590000Y-115578365D01*
X101811986Y-115558944D01*
X101955536Y-115520480D01*
X102021917Y-115502693D01*
X102021919Y-115502692D01*
X102027227Y-115501270D01*
X102033221Y-115498475D01*
X102224196Y-115409423D01*
X102224201Y-115409420D01*
X102229183Y-115407097D01*
X102411717Y-115279284D01*
X102569284Y-115121717D01*
X102697097Y-114939182D01*
X102699420Y-114934200D01*
X102699423Y-114934195D01*
X102745805Y-114834727D01*
X102792722Y-114781442D01*
X102860999Y-114761981D01*
X102928959Y-114782523D01*
X102974195Y-114834727D01*
X103020577Y-114934195D01*
X103020580Y-114934200D01*
X103022903Y-114939182D01*
X103150716Y-115121717D01*
X103308283Y-115279284D01*
X103490817Y-115407097D01*
X103495799Y-115409420D01*
X103495804Y-115409423D01*
X103686779Y-115498475D01*
X103692773Y-115501270D01*
X103698081Y-115502692D01*
X103698083Y-115502693D01*
X103764464Y-115520480D01*
X103908014Y-115558944D01*
X104130000Y-115578365D01*
X104351986Y-115558944D01*
X104495536Y-115520480D01*
X104561917Y-115502693D01*
X104561919Y-115502692D01*
X104567227Y-115501270D01*
X104573221Y-115498475D01*
X104764196Y-115409423D01*
X104764201Y-115409420D01*
X104769183Y-115407097D01*
X104951717Y-115279284D01*
X105109284Y-115121717D01*
X105237097Y-114939182D01*
X105239420Y-114934200D01*
X105239423Y-114934195D01*
X105285805Y-114834727D01*
X105332722Y-114781442D01*
X105400999Y-114761981D01*
X105468959Y-114782523D01*
X105514195Y-114834727D01*
X105560577Y-114934195D01*
X105560580Y-114934200D01*
X105562903Y-114939182D01*
X105690716Y-115121717D01*
X105848283Y-115279284D01*
X106030817Y-115407097D01*
X106035799Y-115409420D01*
X106035804Y-115409423D01*
X106226779Y-115498475D01*
X106232773Y-115501270D01*
X106238081Y-115502692D01*
X106238083Y-115502693D01*
X106304464Y-115520480D01*
X106448014Y-115558944D01*
X106670000Y-115578365D01*
X106891986Y-115558944D01*
X107035536Y-115520480D01*
X107101917Y-115502693D01*
X107101919Y-115502692D01*
X107107227Y-115501270D01*
X107113221Y-115498475D01*
X107304196Y-115409423D01*
X107304201Y-115409420D01*
X107309183Y-115407097D01*
X107491717Y-115279284D01*
X107649284Y-115121717D01*
X107777097Y-114939182D01*
X107779420Y-114934200D01*
X107779423Y-114934195D01*
X107825805Y-114834727D01*
X107872722Y-114781442D01*
X107940999Y-114761981D01*
X108008959Y-114782523D01*
X108054195Y-114834727D01*
X108100577Y-114934195D01*
X108100580Y-114934200D01*
X108102903Y-114939182D01*
X108230716Y-115121717D01*
X108388283Y-115279284D01*
X108570817Y-115407097D01*
X108575799Y-115409420D01*
X108575804Y-115409423D01*
X108766779Y-115498475D01*
X108772773Y-115501270D01*
X108778081Y-115502692D01*
X108778083Y-115502693D01*
X108844464Y-115520480D01*
X108988014Y-115558944D01*
X109210000Y-115578365D01*
X109431986Y-115558944D01*
X109575536Y-115520480D01*
X109641917Y-115502693D01*
X109641919Y-115502692D01*
X109647227Y-115501270D01*
X109653221Y-115498475D01*
X109844196Y-115409423D01*
X109844201Y-115409420D01*
X109849183Y-115407097D01*
X110031717Y-115279284D01*
X110189284Y-115121717D01*
X110317097Y-114939182D01*
X110319420Y-114934200D01*
X110319423Y-114934195D01*
X110365805Y-114834727D01*
X110412722Y-114781442D01*
X110480999Y-114761981D01*
X110548959Y-114782523D01*
X110594195Y-114834727D01*
X110640577Y-114934195D01*
X110640580Y-114934200D01*
X110642903Y-114939182D01*
X110770716Y-115121717D01*
X110928283Y-115279284D01*
X111110817Y-115407097D01*
X111115799Y-115409420D01*
X111115804Y-115409423D01*
X111306779Y-115498475D01*
X111312773Y-115501270D01*
X111318081Y-115502692D01*
X111318083Y-115502693D01*
X111384464Y-115520480D01*
X111528014Y-115558944D01*
X111750000Y-115578365D01*
X111971986Y-115558944D01*
X112115536Y-115520480D01*
X112181917Y-115502693D01*
X112181919Y-115502692D01*
X112187227Y-115501270D01*
X112193221Y-115498475D01*
X112384196Y-115409423D01*
X112384201Y-115409420D01*
X112389183Y-115407097D01*
X112571717Y-115279284D01*
X112729284Y-115121717D01*
X112857097Y-114939182D01*
X112859420Y-114934200D01*
X112859423Y-114934195D01*
X112905805Y-114834727D01*
X112952722Y-114781442D01*
X113020999Y-114761981D01*
X113088959Y-114782523D01*
X113134195Y-114834727D01*
X113180577Y-114934195D01*
X113180580Y-114934200D01*
X113182903Y-114939182D01*
X113310716Y-115121717D01*
X113468283Y-115279284D01*
X113650817Y-115407097D01*
X113655799Y-115409420D01*
X113655804Y-115409423D01*
X113846779Y-115498475D01*
X113852773Y-115501270D01*
X113858081Y-115502692D01*
X113858083Y-115502693D01*
X113924464Y-115520480D01*
X114068014Y-115558944D01*
X114290000Y-115578365D01*
X114511986Y-115558944D01*
X114655536Y-115520480D01*
X114721917Y-115502693D01*
X114721919Y-115502692D01*
X114727227Y-115501270D01*
X114733221Y-115498475D01*
X114924196Y-115409423D01*
X114924201Y-115409420D01*
X114929183Y-115407097D01*
X115111717Y-115279284D01*
X115269284Y-115121717D01*
X115397097Y-114939182D01*
X115399420Y-114934200D01*
X115399423Y-114934195D01*
X115445805Y-114834727D01*
X115492722Y-114781442D01*
X115560999Y-114761981D01*
X115628959Y-114782523D01*
X115674195Y-114834727D01*
X115720577Y-114934195D01*
X115720580Y-114934200D01*
X115722903Y-114939182D01*
X115850716Y-115121717D01*
X116008283Y-115279284D01*
X116190817Y-115407097D01*
X116195799Y-115409420D01*
X116195804Y-115409423D01*
X116386779Y-115498475D01*
X116392773Y-115501270D01*
X116398081Y-115502692D01*
X116398083Y-115502693D01*
X116464464Y-115520480D01*
X116608014Y-115558944D01*
X116830000Y-115578365D01*
X117051986Y-115558944D01*
X117195536Y-115520480D01*
X117261917Y-115502693D01*
X117261919Y-115502692D01*
X117267227Y-115501270D01*
X117273221Y-115498475D01*
X117464196Y-115409423D01*
X117464201Y-115409420D01*
X117469183Y-115407097D01*
X117651717Y-115279284D01*
X117809284Y-115121717D01*
X117937097Y-114939182D01*
X117939420Y-114934200D01*
X117939423Y-114934195D01*
X117985805Y-114834727D01*
X118032722Y-114781442D01*
X118100999Y-114761981D01*
X118168959Y-114782523D01*
X118214195Y-114834727D01*
X118260577Y-114934195D01*
X118260580Y-114934200D01*
X118262903Y-114939182D01*
X118390716Y-115121717D01*
X118548283Y-115279284D01*
X118730817Y-115407097D01*
X118735799Y-115409420D01*
X118735804Y-115409423D01*
X118926779Y-115498475D01*
X118932773Y-115501270D01*
X118938081Y-115502692D01*
X118938083Y-115502693D01*
X119004464Y-115520480D01*
X119148014Y-115558944D01*
X119370000Y-115578365D01*
X119591986Y-115558944D01*
X119735536Y-115520480D01*
X119801917Y-115502693D01*
X119801919Y-115502692D01*
X119807227Y-115501270D01*
X119813221Y-115498475D01*
X120004196Y-115409423D01*
X120004201Y-115409420D01*
X120009183Y-115407097D01*
X120191717Y-115279284D01*
X120349284Y-115121717D01*
X120477097Y-114939182D01*
X120479420Y-114934200D01*
X120479423Y-114934195D01*
X120525805Y-114834727D01*
X120572722Y-114781442D01*
X120640999Y-114761981D01*
X120708959Y-114782523D01*
X120754195Y-114834727D01*
X120800577Y-114934195D01*
X120800580Y-114934200D01*
X120802903Y-114939182D01*
X120930716Y-115121717D01*
X121088283Y-115279284D01*
X121270817Y-115407097D01*
X121275799Y-115409420D01*
X121275804Y-115409423D01*
X121466779Y-115498475D01*
X121472773Y-115501270D01*
X121478081Y-115502692D01*
X121478083Y-115502693D01*
X121544464Y-115520480D01*
X121688014Y-115558944D01*
X121910000Y-115578365D01*
X122131986Y-115558944D01*
X122275536Y-115520480D01*
X122341917Y-115502693D01*
X122341919Y-115502692D01*
X122347227Y-115501270D01*
X122353221Y-115498475D01*
X122544196Y-115409423D01*
X122544201Y-115409420D01*
X122549183Y-115407097D01*
X122731717Y-115279284D01*
X122889284Y-115121717D01*
X123017097Y-114939182D01*
X123019420Y-114934200D01*
X123019423Y-114934195D01*
X123065805Y-114834727D01*
X123112722Y-114781442D01*
X123180999Y-114761981D01*
X123248959Y-114782523D01*
X123294195Y-114834727D01*
X123340577Y-114934195D01*
X123340580Y-114934200D01*
X123342903Y-114939182D01*
X123470716Y-115121717D01*
X123628283Y-115279284D01*
X123810817Y-115407097D01*
X123815799Y-115409420D01*
X123815804Y-115409423D01*
X124006779Y-115498475D01*
X124012773Y-115501270D01*
X124018081Y-115502692D01*
X124018083Y-115502693D01*
X124084464Y-115520480D01*
X124228014Y-115558944D01*
X124450000Y-115578365D01*
X124671986Y-115558944D01*
X124815536Y-115520480D01*
X124881917Y-115502693D01*
X124881919Y-115502692D01*
X124887227Y-115501270D01*
X124893221Y-115498475D01*
X125084196Y-115409423D01*
X125084201Y-115409420D01*
X125089183Y-115407097D01*
X125271717Y-115279284D01*
X125429284Y-115121717D01*
X125557097Y-114939182D01*
X125559420Y-114934200D01*
X125559423Y-114934195D01*
X125605805Y-114834727D01*
X125652722Y-114781442D01*
X125720999Y-114761981D01*
X125788959Y-114782523D01*
X125834195Y-114834727D01*
X125880577Y-114934195D01*
X125880580Y-114934200D01*
X125882903Y-114939182D01*
X126010716Y-115121717D01*
X126168283Y-115279284D01*
X126350817Y-115407097D01*
X126355799Y-115409420D01*
X126355804Y-115409423D01*
X126546779Y-115498475D01*
X126552773Y-115501270D01*
X126558081Y-115502692D01*
X126558083Y-115502693D01*
X126624464Y-115520480D01*
X126768014Y-115558944D01*
X126990000Y-115578365D01*
X127211986Y-115558944D01*
X127355536Y-115520480D01*
X127421917Y-115502693D01*
X127421919Y-115502692D01*
X127427227Y-115501270D01*
X127433221Y-115498475D01*
X127624196Y-115409423D01*
X127624201Y-115409420D01*
X127629183Y-115407097D01*
X127695113Y-115360932D01*
X128833623Y-115360932D01*
X128842916Y-115372945D01*
X128886569Y-115403512D01*
X128896047Y-115408984D01*
X129087962Y-115498475D01*
X129098255Y-115502221D01*
X129302786Y-115557025D01*
X129313581Y-115558928D01*
X129524525Y-115577384D01*
X129535475Y-115577384D01*
X129746419Y-115558928D01*
X129757214Y-115557025D01*
X129961745Y-115502221D01*
X129972038Y-115498475D01*
X130163953Y-115408984D01*
X130173431Y-115403512D01*
X130217920Y-115372359D01*
X130226294Y-115361883D01*
X130219226Y-115348436D01*
X129542812Y-114672022D01*
X129528868Y-114664408D01*
X129527035Y-114664539D01*
X129520420Y-114668790D01*
X128840053Y-115349157D01*
X128833623Y-115360932D01*
X127695113Y-115360932D01*
X127811717Y-115279284D01*
X127969284Y-115121717D01*
X128097097Y-114939182D01*
X128099420Y-114934200D01*
X128099423Y-114934195D01*
X128146081Y-114834135D01*
X128192998Y-114780850D01*
X128261275Y-114761389D01*
X128329235Y-114781931D01*
X128374471Y-114834135D01*
X128421012Y-114933944D01*
X128426495Y-114943439D01*
X128457640Y-114987919D01*
X128468117Y-114996294D01*
X128481564Y-114989226D01*
X129440905Y-114029885D01*
X129503217Y-113995859D01*
X129574032Y-114000924D01*
X129619095Y-114029885D01*
X130579157Y-114989947D01*
X130590932Y-114996377D01*
X130602947Y-114987081D01*
X130633505Y-114943439D01*
X130638988Y-114933944D01*
X130685529Y-114834135D01*
X130732446Y-114780850D01*
X130800723Y-114761389D01*
X130868683Y-114781931D01*
X130913919Y-114834135D01*
X130960577Y-114934195D01*
X130960580Y-114934200D01*
X130962903Y-114939182D01*
X131090716Y-115121717D01*
X131248283Y-115279284D01*
X131430817Y-115407097D01*
X131435799Y-115409420D01*
X131435804Y-115409423D01*
X131626779Y-115498475D01*
X131632773Y-115501270D01*
X131638081Y-115502692D01*
X131638083Y-115502693D01*
X131704464Y-115520480D01*
X131848014Y-115558944D01*
X132070000Y-115578365D01*
X132291986Y-115558944D01*
X132435536Y-115520480D01*
X132501917Y-115502693D01*
X132501919Y-115502692D01*
X132507227Y-115501270D01*
X132513221Y-115498475D01*
X132704196Y-115409423D01*
X132704201Y-115409420D01*
X132709183Y-115407097D01*
X132891717Y-115279284D01*
X133049284Y-115121717D01*
X133177097Y-114939182D01*
X133179420Y-114934200D01*
X133179423Y-114934195D01*
X133225805Y-114834727D01*
X133272722Y-114781442D01*
X133340999Y-114761981D01*
X133408959Y-114782523D01*
X133454195Y-114834727D01*
X133500577Y-114934195D01*
X133500580Y-114934200D01*
X133502903Y-114939182D01*
X133630716Y-115121717D01*
X133788283Y-115279284D01*
X133970817Y-115407097D01*
X133975799Y-115409420D01*
X133975804Y-115409423D01*
X134166779Y-115498475D01*
X134172773Y-115501270D01*
X134178081Y-115502692D01*
X134178083Y-115502693D01*
X134244464Y-115520480D01*
X134388014Y-115558944D01*
X134610000Y-115578365D01*
X134831986Y-115558944D01*
X134975536Y-115520480D01*
X135041917Y-115502693D01*
X135041919Y-115502692D01*
X135047227Y-115501270D01*
X135053221Y-115498475D01*
X135244196Y-115409423D01*
X135244201Y-115409420D01*
X135249183Y-115407097D01*
X135431717Y-115279284D01*
X135589284Y-115121717D01*
X135717097Y-114939182D01*
X135719420Y-114934200D01*
X135719423Y-114934195D01*
X135765805Y-114834727D01*
X135812722Y-114781442D01*
X135880999Y-114761981D01*
X135948959Y-114782523D01*
X135994195Y-114834727D01*
X136040577Y-114934195D01*
X136040580Y-114934200D01*
X136042903Y-114939182D01*
X136170716Y-115121717D01*
X136328283Y-115279284D01*
X136510817Y-115407097D01*
X136515799Y-115409420D01*
X136515804Y-115409423D01*
X136706779Y-115498475D01*
X136712773Y-115501270D01*
X136718081Y-115502692D01*
X136718083Y-115502693D01*
X136784464Y-115520480D01*
X136928014Y-115558944D01*
X137150000Y-115578365D01*
X137371986Y-115558944D01*
X137515536Y-115520480D01*
X137581917Y-115502693D01*
X137581919Y-115502692D01*
X137587227Y-115501270D01*
X137593221Y-115498475D01*
X137784196Y-115409423D01*
X137784201Y-115409420D01*
X137789183Y-115407097D01*
X137971717Y-115279284D01*
X138129284Y-115121717D01*
X138257097Y-114939182D01*
X138259420Y-114934200D01*
X138259423Y-114934195D01*
X138305805Y-114834727D01*
X138352722Y-114781442D01*
X138420999Y-114761981D01*
X138488959Y-114782523D01*
X138534195Y-114834727D01*
X138580577Y-114934195D01*
X138580580Y-114934200D01*
X138582903Y-114939182D01*
X138710716Y-115121717D01*
X138868283Y-115279284D01*
X139050817Y-115407097D01*
X139055799Y-115409420D01*
X139055804Y-115409423D01*
X139246779Y-115498475D01*
X139252773Y-115501270D01*
X139258081Y-115502692D01*
X139258083Y-115502693D01*
X139324464Y-115520480D01*
X139468014Y-115558944D01*
X139690000Y-115578365D01*
X139911986Y-115558944D01*
X140055536Y-115520480D01*
X140121917Y-115502693D01*
X140121919Y-115502692D01*
X140127227Y-115501270D01*
X140133221Y-115498475D01*
X140324196Y-115409423D01*
X140324201Y-115409420D01*
X140329183Y-115407097D01*
X140511717Y-115279284D01*
X140669284Y-115121717D01*
X140797097Y-114939182D01*
X140799420Y-114934200D01*
X140799423Y-114934195D01*
X140845805Y-114834727D01*
X140892722Y-114781442D01*
X140960999Y-114761981D01*
X141028959Y-114782523D01*
X141074195Y-114834727D01*
X141120577Y-114934195D01*
X141120580Y-114934200D01*
X141122903Y-114939182D01*
X141250716Y-115121717D01*
X141408283Y-115279284D01*
X141590817Y-115407097D01*
X141595799Y-115409420D01*
X141595804Y-115409423D01*
X141786779Y-115498475D01*
X141792773Y-115501270D01*
X141798081Y-115502692D01*
X141798083Y-115502693D01*
X141864464Y-115520480D01*
X142008014Y-115558944D01*
X142230000Y-115578365D01*
X142451986Y-115558944D01*
X142457296Y-115557521D01*
X142457303Y-115557520D01*
X142492967Y-115547964D01*
X142563944Y-115549654D01*
X142614672Y-115580576D01*
X143150501Y-116116405D01*
X143184527Y-116178717D01*
X143179462Y-116249532D01*
X143136915Y-116306368D01*
X143070395Y-116331179D01*
X143061406Y-116331500D01*
X89534500Y-116331500D01*
X89466379Y-116311498D01*
X89419886Y-116257842D01*
X89408500Y-116205500D01*
X89408500Y-112395000D01*
X91731526Y-112395000D01*
X91751391Y-112647403D01*
X91810495Y-112893591D01*
X91812388Y-112898162D01*
X91812389Y-112898164D01*
X91894877Y-113097307D01*
X91907384Y-113127502D01*
X92039672Y-113343376D01*
X92204102Y-113535898D01*
X92396624Y-113700328D01*
X92612498Y-113832616D01*
X92617068Y-113834509D01*
X92617072Y-113834511D01*
X92841836Y-113927611D01*
X92846409Y-113929505D01*
X92890949Y-113940198D01*
X93087784Y-113987454D01*
X93087790Y-113987455D01*
X93092597Y-113988609D01*
X93184715Y-113995859D01*
X93279345Y-114003307D01*
X93279352Y-114003307D01*
X93281801Y-114003500D01*
X93408199Y-114003500D01*
X93410648Y-114003307D01*
X93410655Y-114003307D01*
X93505285Y-113995859D01*
X93597403Y-113988609D01*
X93602210Y-113987455D01*
X93602216Y-113987454D01*
X93799051Y-113940198D01*
X93843591Y-113929505D01*
X93848164Y-113927611D01*
X94072928Y-113834511D01*
X94072932Y-113834509D01*
X94077502Y-113832616D01*
X94293376Y-113700328D01*
X94485898Y-113535898D01*
X94650328Y-113343376D01*
X94782616Y-113127502D01*
X94795124Y-113097307D01*
X94877611Y-112898164D01*
X94877612Y-112898162D01*
X94879505Y-112893591D01*
X94938609Y-112647403D01*
X94958474Y-112395000D01*
X94938609Y-112142597D01*
X94879505Y-111896409D01*
X94823624Y-111761500D01*
X94784511Y-111667072D01*
X94784509Y-111667068D01*
X94782616Y-111662498D01*
X94650328Y-111446624D01*
X94485898Y-111254102D01*
X94293376Y-111089672D01*
X94077502Y-110957384D01*
X94072932Y-110955491D01*
X94072928Y-110955489D01*
X93848164Y-110862389D01*
X93848162Y-110862388D01*
X93843591Y-110860495D01*
X93758968Y-110840179D01*
X93602216Y-110802546D01*
X93602210Y-110802545D01*
X93597403Y-110801391D01*
X93497584Y-110793535D01*
X93410655Y-110786693D01*
X93410648Y-110786693D01*
X93408199Y-110786500D01*
X93281801Y-110786500D01*
X93279352Y-110786693D01*
X93279345Y-110786693D01*
X93192416Y-110793535D01*
X93092597Y-110801391D01*
X93087790Y-110802545D01*
X93087784Y-110802546D01*
X92931032Y-110840179D01*
X92846409Y-110860495D01*
X92841838Y-110862388D01*
X92841836Y-110862389D01*
X92617072Y-110955489D01*
X92617068Y-110955491D01*
X92612498Y-110957384D01*
X92396624Y-111089672D01*
X92204102Y-111254102D01*
X92039672Y-111446624D01*
X91907384Y-111662498D01*
X91905491Y-111667068D01*
X91905489Y-111667072D01*
X91866376Y-111761500D01*
X91810495Y-111896409D01*
X91751391Y-112142597D01*
X91731526Y-112395000D01*
X89408500Y-112395000D01*
X89408500Y-92075000D01*
X91731526Y-92075000D01*
X91751391Y-92327403D01*
X91810495Y-92573591D01*
X91907384Y-92807502D01*
X92039672Y-93023376D01*
X92204102Y-93215898D01*
X92396624Y-93380328D01*
X92612498Y-93512616D01*
X92617068Y-93514509D01*
X92617072Y-93514511D01*
X92841836Y-93607611D01*
X92846409Y-93609505D01*
X92931032Y-93629821D01*
X93087784Y-93667454D01*
X93087790Y-93667455D01*
X93092597Y-93668609D01*
X93192416Y-93676465D01*
X93279345Y-93683307D01*
X93279352Y-93683307D01*
X93281801Y-93683500D01*
X93408199Y-93683500D01*
X93410648Y-93683307D01*
X93410655Y-93683307D01*
X93497584Y-93676465D01*
X93597403Y-93668609D01*
X93602210Y-93667455D01*
X93602216Y-93667454D01*
X93758968Y-93629821D01*
X93843591Y-93609505D01*
X93848164Y-93607611D01*
X94072928Y-93514511D01*
X94072932Y-93514509D01*
X94077502Y-93512616D01*
X94293376Y-93380328D01*
X94485898Y-93215898D01*
X94650328Y-93023376D01*
X94782616Y-92807502D01*
X94879505Y-92573591D01*
X94938609Y-92327403D01*
X94958474Y-92075000D01*
X94938609Y-91822597D01*
X94879505Y-91576409D01*
X94782616Y-91342498D01*
X94650328Y-91126624D01*
X94485898Y-90934102D01*
X94293376Y-90769672D01*
X94077502Y-90637384D01*
X94072932Y-90635491D01*
X94072928Y-90635489D01*
X93848164Y-90542389D01*
X93848162Y-90542388D01*
X93843591Y-90540495D01*
X93758968Y-90520179D01*
X93602216Y-90482546D01*
X93602210Y-90482545D01*
X93597403Y-90481391D01*
X93497584Y-90473535D01*
X93410655Y-90466693D01*
X93410648Y-90466693D01*
X93408199Y-90466500D01*
X93281801Y-90466500D01*
X93279352Y-90466693D01*
X93279345Y-90466693D01*
X93192416Y-90473535D01*
X93092597Y-90481391D01*
X93087790Y-90482545D01*
X93087784Y-90482546D01*
X92931032Y-90520179D01*
X92846409Y-90540495D01*
X92841838Y-90542388D01*
X92841836Y-90542389D01*
X92617072Y-90635489D01*
X92617068Y-90635491D01*
X92612498Y-90637384D01*
X92396624Y-90769672D01*
X92204102Y-90934102D01*
X92039672Y-91126624D01*
X91907384Y-91342498D01*
X91810495Y-91576409D01*
X91751391Y-91822597D01*
X91731526Y-92075000D01*
X89408500Y-92075000D01*
X89408500Y-88900000D01*
X97771635Y-88900000D01*
X97791056Y-89121986D01*
X97848730Y-89337227D01*
X97851052Y-89342208D01*
X97851053Y-89342209D01*
X97940577Y-89534195D01*
X97940580Y-89534200D01*
X97942903Y-89539182D01*
X98070716Y-89721717D01*
X98228283Y-89879284D01*
X98410817Y-90007097D01*
X98415799Y-90009420D01*
X98415804Y-90009423D01*
X98560011Y-90076667D01*
X98612773Y-90101270D01*
X98618081Y-90102692D01*
X98618083Y-90102693D01*
X98684465Y-90120480D01*
X98828014Y-90158944D01*
X99050000Y-90178365D01*
X99271986Y-90158944D01*
X99415535Y-90120480D01*
X99481917Y-90102693D01*
X99481919Y-90102692D01*
X99487227Y-90101270D01*
X99539989Y-90076667D01*
X99684196Y-90009423D01*
X99684201Y-90009420D01*
X99689183Y-90007097D01*
X99871717Y-89879284D01*
X100029284Y-89721717D01*
X100157097Y-89539182D01*
X100159420Y-89534200D01*
X100159423Y-89534195D01*
X100205805Y-89434727D01*
X100252722Y-89381442D01*
X100320999Y-89361981D01*
X100388959Y-89382523D01*
X100434195Y-89434727D01*
X100480577Y-89534195D01*
X100480580Y-89534200D01*
X100482903Y-89539182D01*
X100610716Y-89721717D01*
X100768283Y-89879284D01*
X100950817Y-90007097D01*
X100955799Y-90009420D01*
X100955804Y-90009423D01*
X101100011Y-90076667D01*
X101152773Y-90101270D01*
X101158081Y-90102692D01*
X101158083Y-90102693D01*
X101224465Y-90120480D01*
X101368014Y-90158944D01*
X101590000Y-90178365D01*
X101811986Y-90158944D01*
X101955535Y-90120480D01*
X102021917Y-90102693D01*
X102021919Y-90102692D01*
X102027227Y-90101270D01*
X102079989Y-90076667D01*
X102224196Y-90009423D01*
X102224201Y-90009420D01*
X102229183Y-90007097D01*
X102411717Y-89879284D01*
X102569284Y-89721717D01*
X102697097Y-89539182D01*
X102699420Y-89534200D01*
X102699423Y-89534195D01*
X102745805Y-89434727D01*
X102792722Y-89381442D01*
X102860999Y-89361981D01*
X102928959Y-89382523D01*
X102974195Y-89434727D01*
X103020577Y-89534195D01*
X103020580Y-89534200D01*
X103022903Y-89539182D01*
X103150716Y-89721717D01*
X103308283Y-89879284D01*
X103490817Y-90007097D01*
X103495799Y-90009420D01*
X103495804Y-90009423D01*
X103640011Y-90076667D01*
X103692773Y-90101270D01*
X103698081Y-90102692D01*
X103698083Y-90102693D01*
X103764465Y-90120480D01*
X103908014Y-90158944D01*
X104130000Y-90178365D01*
X104351986Y-90158944D01*
X104495535Y-90120480D01*
X104561917Y-90102693D01*
X104561919Y-90102692D01*
X104567227Y-90101270D01*
X104619989Y-90076667D01*
X104764196Y-90009423D01*
X104764201Y-90009420D01*
X104769183Y-90007097D01*
X104951717Y-89879284D01*
X105109284Y-89721717D01*
X105237097Y-89539182D01*
X105239420Y-89534200D01*
X105239423Y-89534195D01*
X105285805Y-89434727D01*
X105332722Y-89381442D01*
X105400999Y-89361981D01*
X105468959Y-89382523D01*
X105514195Y-89434727D01*
X105560577Y-89534195D01*
X105560580Y-89534200D01*
X105562903Y-89539182D01*
X105690716Y-89721717D01*
X105848283Y-89879284D01*
X106030817Y-90007097D01*
X106035799Y-90009420D01*
X106035804Y-90009423D01*
X106180011Y-90076667D01*
X106232773Y-90101270D01*
X106238081Y-90102692D01*
X106238083Y-90102693D01*
X106304465Y-90120480D01*
X106448014Y-90158944D01*
X106670000Y-90178365D01*
X106891986Y-90158944D01*
X107035535Y-90120480D01*
X107101917Y-90102693D01*
X107101919Y-90102692D01*
X107107227Y-90101270D01*
X107159989Y-90076667D01*
X107304196Y-90009423D01*
X107304201Y-90009420D01*
X107309183Y-90007097D01*
X107491717Y-89879284D01*
X107649284Y-89721717D01*
X107777097Y-89539182D01*
X107779420Y-89534200D01*
X107779423Y-89534195D01*
X107825805Y-89434727D01*
X107872722Y-89381442D01*
X107940999Y-89361981D01*
X108008959Y-89382523D01*
X108054195Y-89434727D01*
X108100577Y-89534195D01*
X108100580Y-89534200D01*
X108102903Y-89539182D01*
X108230716Y-89721717D01*
X108388283Y-89879284D01*
X108570817Y-90007097D01*
X108575799Y-90009420D01*
X108575804Y-90009423D01*
X108720011Y-90076667D01*
X108772773Y-90101270D01*
X108778081Y-90102692D01*
X108778083Y-90102693D01*
X108844465Y-90120480D01*
X108988014Y-90158944D01*
X109210000Y-90178365D01*
X109431986Y-90158944D01*
X109575535Y-90120480D01*
X109641917Y-90102693D01*
X109641919Y-90102692D01*
X109647227Y-90101270D01*
X109699989Y-90076667D01*
X109844196Y-90009423D01*
X109844201Y-90009420D01*
X109849183Y-90007097D01*
X109915113Y-89960932D01*
X111053623Y-89960932D01*
X111062916Y-89972945D01*
X111106569Y-90003512D01*
X111116047Y-90008984D01*
X111307962Y-90098475D01*
X111318255Y-90102221D01*
X111522786Y-90157025D01*
X111533581Y-90158928D01*
X111744525Y-90177384D01*
X111755475Y-90177384D01*
X111966419Y-90158928D01*
X111977214Y-90157025D01*
X112181745Y-90102221D01*
X112192038Y-90098475D01*
X112383953Y-90008984D01*
X112393431Y-90003512D01*
X112437920Y-89972359D01*
X112446294Y-89961883D01*
X112439226Y-89948436D01*
X111762812Y-89272022D01*
X111748868Y-89264408D01*
X111747035Y-89264539D01*
X111740420Y-89268790D01*
X111060053Y-89949157D01*
X111053623Y-89960932D01*
X109915113Y-89960932D01*
X110031717Y-89879284D01*
X110189284Y-89721717D01*
X110317097Y-89539182D01*
X110319420Y-89534200D01*
X110319423Y-89534195D01*
X110366081Y-89434135D01*
X110412998Y-89380850D01*
X110481275Y-89361389D01*
X110549235Y-89381931D01*
X110594471Y-89434135D01*
X110641012Y-89533944D01*
X110646495Y-89543439D01*
X110677640Y-89587919D01*
X110688117Y-89596294D01*
X110701564Y-89589226D01*
X111377978Y-88912812D01*
X111385592Y-88898868D01*
X111385461Y-88897035D01*
X111381210Y-88890420D01*
X110700843Y-88210053D01*
X110689068Y-88203623D01*
X110677053Y-88212919D01*
X110646495Y-88256561D01*
X110641012Y-88266056D01*
X110594471Y-88365865D01*
X110547554Y-88419150D01*
X110479277Y-88438611D01*
X110411317Y-88418069D01*
X110366081Y-88365865D01*
X110319423Y-88265805D01*
X110319420Y-88265800D01*
X110317097Y-88260818D01*
X110195294Y-88086866D01*
X110192443Y-88082794D01*
X110192441Y-88082791D01*
X110189284Y-88078283D01*
X110031717Y-87920716D01*
X109997424Y-87896703D01*
X109915113Y-87839068D01*
X109913755Y-87838117D01*
X111053706Y-87838117D01*
X111060774Y-87851564D01*
X111737188Y-88527978D01*
X111751132Y-88535592D01*
X111752965Y-88535461D01*
X111759580Y-88531210D01*
X112439947Y-87850843D01*
X112446377Y-87839068D01*
X112437084Y-87827055D01*
X112393431Y-87796488D01*
X112383953Y-87791016D01*
X112192038Y-87701525D01*
X112181745Y-87697779D01*
X111977214Y-87642975D01*
X111966419Y-87641072D01*
X111755475Y-87622616D01*
X111744525Y-87622616D01*
X111533581Y-87641072D01*
X111522786Y-87642975D01*
X111318255Y-87697779D01*
X111307963Y-87701525D01*
X111116056Y-87791012D01*
X111106561Y-87796495D01*
X111062081Y-87827640D01*
X111053706Y-87838117D01*
X109913755Y-87838117D01*
X109849183Y-87792903D01*
X109844201Y-87790580D01*
X109844196Y-87790577D01*
X109652209Y-87701053D01*
X109652208Y-87701053D01*
X109647227Y-87698730D01*
X109641919Y-87697308D01*
X109641917Y-87697307D01*
X109575536Y-87679520D01*
X109431986Y-87641056D01*
X109210000Y-87621635D01*
X108988014Y-87641056D01*
X108844464Y-87679520D01*
X108778083Y-87697307D01*
X108778081Y-87697308D01*
X108772773Y-87698730D01*
X108767792Y-87701052D01*
X108767791Y-87701053D01*
X108575805Y-87790577D01*
X108575800Y-87790580D01*
X108570818Y-87792903D01*
X108388283Y-87920716D01*
X108230716Y-88078283D01*
X108227559Y-88082791D01*
X108227557Y-88082794D01*
X108224706Y-88086866D01*
X108102903Y-88260818D01*
X108100580Y-88265800D01*
X108100577Y-88265805D01*
X108054195Y-88365273D01*
X108007278Y-88418558D01*
X107939001Y-88438019D01*
X107871041Y-88417477D01*
X107825805Y-88365273D01*
X107779423Y-88265805D01*
X107779420Y-88265800D01*
X107777097Y-88260818D01*
X107655294Y-88086866D01*
X107652443Y-88082794D01*
X107652441Y-88082791D01*
X107649284Y-88078283D01*
X107491717Y-87920716D01*
X107457424Y-87896703D01*
X107375113Y-87839068D01*
X107309183Y-87792903D01*
X107304201Y-87790580D01*
X107304196Y-87790577D01*
X107112209Y-87701053D01*
X107112208Y-87701053D01*
X107107227Y-87698730D01*
X107101919Y-87697308D01*
X107101917Y-87697307D01*
X107035536Y-87679520D01*
X106891986Y-87641056D01*
X106670000Y-87621635D01*
X106448014Y-87641056D01*
X106304464Y-87679520D01*
X106238083Y-87697307D01*
X106238081Y-87697308D01*
X106232773Y-87698730D01*
X106227792Y-87701052D01*
X106227791Y-87701053D01*
X106035805Y-87790577D01*
X106035800Y-87790580D01*
X106030818Y-87792903D01*
X105848283Y-87920716D01*
X105690716Y-88078283D01*
X105687559Y-88082791D01*
X105687557Y-88082794D01*
X105684706Y-88086866D01*
X105562903Y-88260818D01*
X105560580Y-88265800D01*
X105560577Y-88265805D01*
X105514195Y-88365273D01*
X105467278Y-88418558D01*
X105399001Y-88438019D01*
X105331041Y-88417477D01*
X105285805Y-88365273D01*
X105239423Y-88265805D01*
X105239420Y-88265800D01*
X105237097Y-88260818D01*
X105115294Y-88086866D01*
X105112443Y-88082794D01*
X105112441Y-88082791D01*
X105109284Y-88078283D01*
X104951717Y-87920716D01*
X104917424Y-87896703D01*
X104835113Y-87839068D01*
X104769183Y-87792903D01*
X104764201Y-87790580D01*
X104764196Y-87790577D01*
X104572209Y-87701053D01*
X104572208Y-87701053D01*
X104567227Y-87698730D01*
X104561919Y-87697308D01*
X104561917Y-87697307D01*
X104495536Y-87679520D01*
X104351986Y-87641056D01*
X104130000Y-87621635D01*
X103908014Y-87641056D01*
X103764464Y-87679520D01*
X103698083Y-87697307D01*
X103698081Y-87697308D01*
X103692773Y-87698730D01*
X103687792Y-87701052D01*
X103687791Y-87701053D01*
X103495805Y-87790577D01*
X103495800Y-87790580D01*
X103490818Y-87792903D01*
X103308283Y-87920716D01*
X103150716Y-88078283D01*
X103147559Y-88082791D01*
X103147557Y-88082794D01*
X103144706Y-88086866D01*
X103022903Y-88260818D01*
X103020580Y-88265800D01*
X103020577Y-88265805D01*
X102974195Y-88365273D01*
X102927278Y-88418558D01*
X102859001Y-88438019D01*
X102791041Y-88417477D01*
X102745805Y-88365273D01*
X102699423Y-88265805D01*
X102699420Y-88265800D01*
X102697097Y-88260818D01*
X102575294Y-88086866D01*
X102572443Y-88082794D01*
X102572441Y-88082791D01*
X102569284Y-88078283D01*
X102411717Y-87920716D01*
X102377424Y-87896703D01*
X102295113Y-87839068D01*
X102229183Y-87792903D01*
X102224201Y-87790580D01*
X102224196Y-87790577D01*
X102032209Y-87701053D01*
X102032208Y-87701053D01*
X102027227Y-87698730D01*
X102021919Y-87697308D01*
X102021917Y-87697307D01*
X101955536Y-87679520D01*
X101811986Y-87641056D01*
X101590000Y-87621635D01*
X101368014Y-87641056D01*
X101224464Y-87679520D01*
X101158083Y-87697307D01*
X101158081Y-87697308D01*
X101152773Y-87698730D01*
X101147792Y-87701052D01*
X101147791Y-87701053D01*
X100955805Y-87790577D01*
X100955800Y-87790580D01*
X100950818Y-87792903D01*
X100768283Y-87920716D01*
X100610716Y-88078283D01*
X100607559Y-88082791D01*
X100607557Y-88082794D01*
X100604706Y-88086866D01*
X100482903Y-88260818D01*
X100480580Y-88265800D01*
X100480577Y-88265805D01*
X100434195Y-88365273D01*
X100387278Y-88418558D01*
X100319001Y-88438019D01*
X100251041Y-88417477D01*
X100205805Y-88365273D01*
X100159423Y-88265805D01*
X100159420Y-88265800D01*
X100157097Y-88260818D01*
X100035294Y-88086866D01*
X100032443Y-88082794D01*
X100032441Y-88082791D01*
X100029284Y-88078283D01*
X99871717Y-87920716D01*
X99837424Y-87896703D01*
X99755113Y-87839068D01*
X99689183Y-87792903D01*
X99684201Y-87790580D01*
X99684196Y-87790577D01*
X99492209Y-87701053D01*
X99492208Y-87701053D01*
X99487227Y-87698730D01*
X99481919Y-87697308D01*
X99481917Y-87697307D01*
X99415536Y-87679520D01*
X99271986Y-87641056D01*
X99050000Y-87621635D01*
X98828014Y-87641056D01*
X98684464Y-87679520D01*
X98618083Y-87697307D01*
X98618081Y-87697308D01*
X98612773Y-87698730D01*
X98607792Y-87701052D01*
X98607791Y-87701053D01*
X98415805Y-87790577D01*
X98415800Y-87790580D01*
X98410818Y-87792903D01*
X98228283Y-87920716D01*
X98070716Y-88078283D01*
X98067559Y-88082791D01*
X98067557Y-88082794D01*
X98064706Y-88086866D01*
X97942903Y-88260818D01*
X97940580Y-88265800D01*
X97940577Y-88265805D01*
X97860273Y-88438019D01*
X97848730Y-88462773D01*
X97791056Y-88678014D01*
X97771635Y-88900000D01*
X89408500Y-88900000D01*
X89408500Y-86994500D01*
X89428502Y-86926379D01*
X89482158Y-86879886D01*
X89534500Y-86868500D01*
X202565500Y-86868500D01*
X202633621Y-86888502D01*
G37*
%TD.AperFunction*%
%TA.AperFunction,Conductor*%
G36*
X151713581Y-113197141D02*
G01*
X151757472Y-113252945D01*
X151766500Y-113299782D01*
X151766500Y-113351802D01*
X151746498Y-113419923D01*
X151729595Y-113440897D01*
X149820896Y-115349595D01*
X149758584Y-115383621D01*
X149731801Y-115386500D01*
X145549480Y-115386500D01*
X145481359Y-115366498D01*
X145460385Y-115349595D01*
X144499885Y-114389095D01*
X144465859Y-114326783D01*
X144470924Y-114255968D01*
X144499885Y-114210905D01*
X144680905Y-114029885D01*
X144743217Y-113995859D01*
X144814032Y-114000924D01*
X144859095Y-114029885D01*
X145819157Y-114989947D01*
X145830932Y-114996377D01*
X145842947Y-114987081D01*
X145873505Y-114943439D01*
X145878988Y-114933944D01*
X145968475Y-114742037D01*
X145972221Y-114731745D01*
X146027025Y-114527214D01*
X146028928Y-114516419D01*
X146047384Y-114305475D01*
X146047384Y-114294525D01*
X146028928Y-114083581D01*
X146027025Y-114072786D01*
X145972221Y-113868255D01*
X145968475Y-113857962D01*
X145961381Y-113842750D01*
X145950720Y-113772558D01*
X145979700Y-113707745D01*
X146039120Y-113668889D01*
X146075576Y-113663500D01*
X149071215Y-113663500D01*
X149139336Y-113683502D01*
X149164850Y-113705190D01*
X149248747Y-113798366D01*
X149309836Y-113842750D01*
X149390638Y-113901456D01*
X149403248Y-113910618D01*
X149409276Y-113913302D01*
X149409278Y-113913303D01*
X149493631Y-113950859D01*
X149577712Y-113988294D01*
X149667768Y-114007436D01*
X149758056Y-114026628D01*
X149758061Y-114026628D01*
X149764513Y-114028000D01*
X149955487Y-114028000D01*
X149961939Y-114026628D01*
X149961944Y-114026628D01*
X150052232Y-114007436D01*
X150142288Y-113988294D01*
X150226369Y-113950859D01*
X150310722Y-113913303D01*
X150310724Y-113913302D01*
X150316752Y-113910618D01*
X150329363Y-113901456D01*
X150410164Y-113842750D01*
X150471253Y-113798366D01*
X150545187Y-113716254D01*
X150594621Y-113661352D01*
X150594622Y-113661351D01*
X150599040Y-113656444D01*
X150694527Y-113491056D01*
X150738437Y-113355916D01*
X150778511Y-113297311D01*
X150843908Y-113269674D01*
X150884467Y-113271607D01*
X151028047Y-113302127D01*
X151028060Y-113302128D01*
X151034513Y-113303500D01*
X151225487Y-113303500D01*
X151231939Y-113302128D01*
X151231944Y-113302128D01*
X151318887Y-113283647D01*
X151412288Y-113263794D01*
X151436656Y-113252945D01*
X151586752Y-113186118D01*
X151587677Y-113188196D01*
X151646488Y-113173924D01*
X151713581Y-113197141D01*
G37*
%TD.AperFunction*%
%TD*%
M02*
